<svg width="65" height="77" viewBox="0 0 65 77" fill="none" xmlns="http://www.w3.org/2000/svg">
<ellipse cx="49.5096" cy="38.2138" rx="14.7788" ry="15.4921" fill="#16CD6D"/>
<path d="M48.1619 21.7909C38.2937 27.5642 22.5367 38.2785 24.5972 36.6446C23.4714 19.6986 25.6972 14.8847 34.773 9.57498C43.9298 5.07106 51.6395 6.18739 59.1946 14.1379C59.1946 14.1379 58.0301 16.0176 48.1619 21.7909Z" fill="#FF5758"/>
<path d="M37.4281 47.5576C46.6012 54.7873 61.0302 64.4546 58.832 63.0497C44.5626 69.2467 37.328 69.0836 30.0466 61.9681C22.7651 54.8526 22.7767 47.5563 24.6879 37.7461C24.6879 37.7461 28.255 40.328 37.4281 47.5576Z" fill="#FFE00F"/>
<path d="M25.0481 28.9186C25.0481 46.8863 25.0481 68.1631 25.0481 69.1959C10.7788 66.6139 0.0769043 53.7038 0.0769043 37.1789C1.09614 21.1704 10.2692 9.29529 25.0481 5.16406C25.0481 5.16406 25.0481 10.9509 25.0481 28.9186Z" fill="#FF6392"/>
</svg>
