<svg width="204" height="75" viewBox="0 0 204 75" fill="none" xmlns="http://www.w3.org/2000/svg">
<ellipse cx="48.5" cy="37" rx="14.5" ry="15" fill="#16CD6D"/>
<path d="M47.1778 21.0987C37.4957 26.6886 22.0361 37.0626 24.0577 35.4806C22.9531 19.0729 25.137 14.4119 34.0416 9.27084C43.0255 4.90998 50.5898 5.99085 58.0024 13.6888C58.0024 13.6888 56.8598 15.5088 47.1778 21.0987Z" fill="#FF5758"/>
<path d="M36.6465 46.0468C45.6465 53.0468 59.8032 62.4071 57.6465 61.0468C43.6463 67.047 36.5483 66.8891 29.4042 59.9996C22.2601 53.1101 22.2715 46.0456 24.1466 36.547C24.1466 36.547 27.6465 39.0468 36.6465 46.0468Z" fill="#FFE00F"/>
<path d="M24.5 28C24.5 45.397 24.5 65.9979 24.5 66.9979C10.5 64.4979 0 51.9979 0 35.9979C1 20.4979 10 9 24.5 5C24.5 5 24.5 10.603 24.5 28Z" fill="#FF6392"/>
<g clip-path="url(#paint0_diamond_318_4979_clip_path)" data-figma-skip-parse="true"><g transform="matrix(0.068 0 0 0.018 123 28)"><rect x="0" y="0" width="1014.71" height="1055.56" fill="url(#paint0_diamond_318_4979)" opacity="1" shape-rendering="crispEdges"/><rect x="0" y="0" width="1014.71" height="1055.56" transform="scale(1 -1)" fill="url(#paint0_diamond_318_4979)" opacity="1" shape-rendering="crispEdges"/><rect x="0" y="0" width="1014.71" height="1055.56" transform="scale(-1 1)" fill="url(#paint0_diamond_318_4979)" opacity="1" shape-rendering="crispEdges"/><rect x="0" y="0" width="1014.71" height="1055.56" transform="scale(-1)" fill="url(#paint0_diamond_318_4979)" opacity="1" shape-rendering="crispEdges"/></g></g><path d="M96.9657 34.14C96.4324 34.14 95.9924 34.02 95.6457 33.78C95.299 33.54 95.019 33.22 94.8057 32.82C94.5924 32.4067 94.419 31.9533 94.2857 31.46C94.1657 30.9533 94.0524 30.4467 93.9457 29.94C93.8124 29.2333 93.6457 28.5733 93.4457 27.96C93.259 27.3467 92.9524 26.92 92.5257 26.68C92.259 27.6533 92.0057 28.6333 91.7657 29.62C91.5257 30.5933 91.4057 31.56 91.4057 32.52C91.4057 32.6667 91.4057 32.82 91.4057 32.98C91.419 33.1267 91.4324 33.2733 91.4457 33.42C90.979 33.86 90.439 34.08 89.8257 34.08C89.319 34.08 88.859 33.8867 88.4457 33.5C88.0457 33.1133 87.8457 32.4867 87.8457 31.62C87.8457 30.9667 87.9524 30.3 88.1657 29.62C88.379 28.94 88.6257 28.2533 88.9057 27.56C89.199 26.8667 89.4524 26.18 89.6657 25.5C89.879 24.8067 89.9857 24.1267 89.9857 23.46C89.9857 23.02 89.9324 22.7133 89.8257 22.54C89.719 22.3533 89.579 22.26 89.4057 22.26C89.219 22.26 89.0124 22.3533 88.7857 22.54C88.5724 22.7267 88.3657 23.0133 88.1657 23.4L88.0257 23.36C88.0524 22.68 88.2057 22.0533 88.4857 21.48C88.7657 20.9067 89.139 20.4533 89.6057 20.12C90.0857 19.7733 90.6057 19.6 91.1657 19.6C91.7257 19.6 92.219 19.8133 92.6457 20.24C93.0724 20.6533 93.2857 21.3733 93.2857 22.4C93.2857 22.8533 93.239 23.34 93.1457 23.86C93.0657 24.3667 92.9657 24.8867 92.8457 25.42C93.4457 24.9 93.9657 24.3267 94.4057 23.7C94.859 23.06 95.2057 22.44 95.4457 21.84C95.699 21.2267 95.8257 20.6933 95.8257 20.24C95.8257 19.9467 95.7657 19.7 95.6457 19.5C96.299 19.5 96.879 19.5933 97.3857 19.78C97.9057 19.9667 98.319 20.2267 98.6257 20.56C98.9324 20.88 99.0857 21.2533 99.0857 21.68C99.0857 22.2533 98.759 22.88 98.1057 23.56C97.4657 24.24 96.379 24.9133 94.8457 25.58C95.2324 25.7533 95.5457 26.0133 95.7857 26.36C96.039 26.6933 96.2457 27.06 96.4057 27.46C96.579 27.8467 96.7257 28.2267 96.8457 28.6C97.0724 29.2533 97.2924 29.8067 97.5057 30.26C97.7324 30.7 98.0524 30.92 98.4657 30.92C98.7324 30.92 98.9657 30.8333 99.1657 30.66C99.379 30.4867 99.5324 30.2933 99.6257 30.08L99.7457 30.14C99.7457 30.86 99.639 31.5267 99.4257 32.14C99.2124 32.74 98.899 33.2267 98.4857 33.6C98.0724 33.96 97.5657 34.14 96.9657 34.14ZM101.881 34.08C101.468 34.08 101.101 33.98 100.781 33.78C100.461 33.58 100.301 33.2467 100.301 32.78C100.301 32.0467 100.455 31.3 100.761 30.54C101.081 29.78 101.468 29.0333 101.921 28.3C102.388 27.5533 102.848 26.8267 103.301 26.12C103.768 25.4133 104.155 24.74 104.461 24.1C104.781 23.46 104.941 22.8667 104.941 22.32C104.941 21.88 104.835 21.66 104.621 21.66C104.475 21.66 104.308 21.78 104.121 22.02C103.935 22.2467 103.801 22.5867 103.721 23.04L103.501 23C103.501 22.24 103.681 21.6 104.041 21.08C104.401 20.5467 104.861 20.1467 105.421 19.88C105.981 19.6133 106.555 19.48 107.141 19.48C107.821 19.48 108.455 19.6733 109.041 20.06C109.641 20.4467 110.055 21.06 110.281 21.9C110.375 22.2333 110.441 22.6067 110.481 23.02C110.535 23.4333 110.568 23.7933 110.581 24.1C110.595 24.3933 110.601 24.54 110.601 24.54C110.628 25.62 110.648 26.5333 110.661 27.28C110.688 28.0267 110.728 28.6533 110.781 29.16C110.835 29.6667 110.908 30.0933 111.001 30.44C111.095 30.7733 111.215 31.0467 111.361 31.26C111.521 31.46 111.721 31.56 111.961 31.56C112.188 31.56 112.381 31.4933 112.541 31.36C112.715 31.2267 112.828 31.1 112.881 30.98L113.021 31.08C113.021 31.6933 112.901 32.2267 112.661 32.68C112.421 33.1333 112.108 33.48 111.721 33.72C111.335 33.96 110.928 34.08 110.501 34.08C110.088 34.08 109.681 33.96 109.281 33.72C108.895 33.4667 108.555 33.08 108.261 32.56C107.968 32.04 107.775 31.3667 107.681 30.54C107.268 30.5133 106.861 30.4933 106.461 30.48C106.075 30.4533 105.721 30.44 105.401 30.44C105.188 30.44 104.981 30.4467 104.781 30.46C104.595 30.46 104.408 30.4667 104.221 30.48C104.101 30.8933 104.001 31.3133 103.921 31.74C103.855 32.1533 103.821 32.56 103.821 32.96C103.821 33.2667 103.621 33.5333 103.221 33.76C102.821 33.9733 102.375 34.08 101.881 34.08ZM104.881 28.62C105.215 28.5267 105.568 28.4667 105.941 28.44C106.315 28.4 106.715 28.38 107.141 28.38H107.581C107.555 27.3933 107.515 26.38 107.461 25.34C107.421 24.3 107.255 23.3333 106.961 22.44C106.855 23.4 106.588 24.4067 106.161 25.46C105.735 26.5133 105.308 27.5667 104.881 28.62ZM128.926 34C128.499 34 128.086 33.88 127.686 33.64C127.299 33.4 126.986 33.02 126.746 32.5C126.506 31.98 126.386 31.3133 126.386 30.5C126.386 29.8333 126.466 29.0867 126.626 28.26C126.786 27.42 126.993 26.58 127.246 25.74C127.513 24.9 127.799 24.14 128.106 23.46C127.186 24.0733 126.379 24.92 125.686 26C124.993 27.08 124.393 28.3333 123.886 29.76C123.993 30.1867 124.079 30.5867 124.146 30.96C124.213 31.3333 124.246 31.6733 124.246 31.98C124.246 32.5667 124.106 33.0267 123.826 33.36C123.546 33.6933 123.059 33.86 122.366 33.86C121.753 33.86 121.299 33.7267 121.006 33.46C120.726 33.18 120.586 32.7933 120.586 32.3C120.586 31.98 120.639 31.6133 120.746 31.2C120.866 30.7867 121.033 30.34 121.246 29.86C121.006 29.1533 120.713 28.36 120.366 27.48C120.019 26.5867 119.533 25.6133 118.906 24.56C118.719 25.3467 118.526 26.1333 118.326 26.92C118.139 27.6933 117.979 28.4133 117.846 29.08C117.726 29.7333 117.666 30.2867 117.666 30.74C117.666 31.4733 117.866 31.84 118.266 31.84L118.306 31.88C118.306 32.32 118.193 32.7 117.966 33.02C117.753 33.3267 117.473 33.5667 117.126 33.74C116.793 33.9 116.439 33.98 116.066 33.98C115.706 33.98 115.353 33.8933 115.006 33.72C114.673 33.5467 114.399 33.28 114.186 32.92C113.973 32.5467 113.866 32.0733 113.866 31.5C113.866 30.9533 113.959 30.36 114.146 29.72C114.346 29.0667 114.593 28.4067 114.886 27.74C115.179 27.06 115.479 26.4 115.786 25.76C116.093 25.1067 116.366 24.5 116.606 23.94C116.859 23.3667 117.026 22.8667 117.106 22.44C116.839 22.2533 116.553 22.16 116.246 22.16C115.993 22.16 115.733 22.2467 115.466 22.42C115.213 22.58 114.973 22.8533 114.746 23.24L114.606 23.18C114.619 22.5 114.766 21.88 115.046 21.32C115.326 20.7467 115.693 20.2933 116.146 19.96C116.613 19.6133 117.119 19.44 117.666 19.44C118.293 19.44 118.939 19.7133 119.606 20.26C120.273 20.8067 120.886 21.7067 121.446 22.96C122.019 24.2133 122.479 25.9067 122.826 28.04C123.333 26.4 123.879 25.0267 124.466 23.92C125.053 22.8133 125.653 21.9333 126.266 21.28C126.893 20.6267 127.506 20.16 128.106 19.88C128.719 19.5867 129.299 19.44 129.846 19.44C130.526 19.44 131.133 19.6067 131.666 19.94C132.213 20.2733 132.639 20.6933 132.946 21.2C133.266 21.7067 133.426 22.2133 133.426 22.72C133.093 22.6267 132.759 22.56 132.426 22.52C132.106 22.48 131.793 22.46 131.486 22.46C131.179 22.46 130.886 22.48 130.606 22.52C130.486 23.1333 130.359 23.82 130.226 24.58C130.093 25.3267 129.973 26.08 129.866 26.84C129.773 27.6 129.726 28.3 129.726 28.94C129.726 29.5933 129.793 30.1267 129.926 30.54C130.059 30.9533 130.293 31.16 130.626 31.16C130.839 31.16 131.053 31.0667 131.266 30.88C131.493 30.6933 131.659 30.4067 131.766 30.02L131.906 30.08C131.906 30.96 131.759 31.6933 131.466 32.28C131.173 32.8533 130.793 33.2867 130.326 33.58C129.873 33.86 129.406 34 128.926 34ZM134.577 34.08C134.163 34.08 133.797 33.98 133.477 33.78C133.157 33.58 132.997 33.2467 132.997 32.78C132.997 32.0467 133.15 31.3 133.457 30.54C133.777 29.78 134.163 29.0333 134.617 28.3C135.083 27.5533 135.543 26.8267 135.997 26.12C136.463 25.4133 136.85 24.74 137.157 24.1C137.477 23.46 137.637 22.8667 137.637 22.32C137.637 21.88 137.53 21.66 137.317 21.66C137.17 21.66 137.003 21.78 136.817 22.02C136.63 22.2467 136.497 22.5867 136.417 23.04L136.197 23C136.197 22.24 136.377 21.6 136.737 21.08C137.097 20.5467 137.557 20.1467 138.117 19.88C138.677 19.6133 139.25 19.48 139.837 19.48C140.517 19.48 141.15 19.6733 141.737 20.06C142.337 20.4467 142.75 21.06 142.977 21.9C143.07 22.2333 143.137 22.6067 143.177 23.02C143.23 23.4333 143.263 23.7933 143.277 24.1C143.29 24.3933 143.297 24.54 143.297 24.54C143.323 25.62 143.343 26.5333 143.357 27.28C143.383 28.0267 143.423 28.6533 143.477 29.16C143.53 29.6667 143.603 30.0933 143.697 30.44C143.79 30.7733 143.91 31.0467 144.057 31.26C144.217 31.46 144.417 31.56 144.657 31.56C144.883 31.56 145.077 31.4933 145.237 31.36C145.41 31.2267 145.523 31.1 145.577 30.98L145.717 31.08C145.717 31.6933 145.597 32.2267 145.357 32.68C145.117 33.1333 144.803 33.48 144.417 33.72C144.03 33.96 143.623 34.08 143.197 34.08C142.783 34.08 142.377 33.96 141.977 33.72C141.59 33.4667 141.25 33.08 140.957 32.56C140.663 32.04 140.47 31.3667 140.377 30.54C139.963 30.5133 139.557 30.4933 139.157 30.48C138.77 30.4533 138.417 30.44 138.097 30.44C137.883 30.44 137.677 30.4467 137.477 30.46C137.29 30.46 137.103 30.4667 136.917 30.48C136.797 30.8933 136.697 31.3133 136.617 31.74C136.55 32.1533 136.517 32.56 136.517 32.96C136.517 33.2667 136.317 33.5333 135.917 33.76C135.517 33.9733 135.07 34.08 134.577 34.08ZM137.577 28.62C137.91 28.5267 138.263 28.4667 138.637 28.44C139.01 28.4 139.41 28.38 139.837 28.38H140.277C140.25 27.3933 140.21 26.38 140.157 25.34C140.117 24.3 139.95 23.3333 139.657 22.44C139.55 23.4 139.283 24.4067 138.857 25.46C138.43 26.5133 138.003 27.5667 137.577 28.62ZM155.734 34.14C155.254 34.14 154.707 34.0533 154.094 33.88C153.494 33.7067 152.86 33.52 152.194 33.32C151.54 33.1067 150.887 32.9533 150.234 32.86C149.78 33.2867 149.354 33.5933 148.954 33.78C148.567 33.9533 148.22 34.04 147.914 34.04C147.527 34.04 147.2 33.9267 146.934 33.7C146.667 33.4733 146.467 33.1867 146.334 32.84C146.2 32.48 146.134 32.1133 146.134 31.74C146.134 31.3533 146.2 30.9867 146.334 30.64C146.48 30.2933 146.7 30.0133 146.994 29.8C147.287 29.5733 147.66 29.46 148.114 29.46C148.207 29.46 148.307 29.4667 148.414 29.48C148.52 29.4933 148.634 29.5133 148.754 29.54C149.007 28.7667 149.227 27.9133 149.414 26.98C149.614 26.0333 149.767 25.1067 149.874 24.2C149.994 23.2933 150.054 22.5067 150.054 21.84C150.054 21.5733 150.04 21.3867 150.014 21.28C149.987 21.16 149.94 21.04 149.874 20.92L149.854 20.86C150.014 20.4333 150.28 20.1 150.654 19.86C151.027 19.62 151.42 19.5 151.834 19.5C152.287 19.5 152.66 19.6667 152.954 20C153.247 20.32 153.394 20.86 153.394 21.62C153.394 22.1 153.334 22.7 153.214 23.42C153.107 24.1267 152.954 24.8933 152.754 25.72C152.554 26.5333 152.334 27.34 152.094 28.14C151.854 28.94 151.614 29.6533 151.374 30.28C151.96 30.4133 152.547 30.5667 153.134 30.74C153.734 30.9133 154.32 31 154.894 31C155.334 31 155.754 30.92 156.154 30.76C156.567 30.6 156.954 30.3067 157.314 29.88C157.58 30.0533 157.774 30.3 157.894 30.62C158.027 30.94 158.094 31.28 158.094 31.64C158.094 32.04 158.007 32.4333 157.834 32.82C157.674 33.1933 157.42 33.5067 157.074 33.76C156.727 34.0133 156.28 34.14 155.734 34.14Z" data-figma-gradient-fill="{&#34;type&#34;:&#34;GRADIENT_DIAMOND&#34;,&#34;stops&#34;:[{&#34;color&#34;:{&#34;r&#34;:1.0,&#34;g&#34;:0.38823530077934265,&#34;b&#34;:0.57254904508590698,&#34;a&#34;:1.0},&#34;position&#34;:0.17073430120944977},{&#34;color&#34;:{&#34;r&#34;:1.0,&#34;g&#34;:0.87843137979507446,&#34;b&#34;:0.058823529630899429,&#34;a&#34;:1.0},&#34;position&#34;:1.0}],&#34;stopsVar&#34;:[{&#34;color&#34;:{&#34;r&#34;:1.0,&#34;g&#34;:0.38823530077934265,&#34;b&#34;:0.57254904508590698,&#34;a&#34;:1.0},&#34;position&#34;:0.17073430120944977},{&#34;color&#34;:{&#34;r&#34;:1.0,&#34;g&#34;:0.87843137979507446,&#34;b&#34;:0.058823529630899429,&#34;a&#34;:1.0},&#34;position&#34;:1.0}],&#34;transform&#34;:{&#34;m00&#34;:136.0,&#34;m01&#34;:0.0,&#34;m02&#34;:55.0,&#34;m10&#34;:0.0,&#34;m11&#34;:36.0,&#34;m12&#34;:10.0},&#34;opacity&#34;:1.0,&#34;blendMode&#34;:&#34;NORMAL&#34;,&#34;visible&#34;:true}"/>
<path d="M70.7628 58.08C70.3095 58.08 69.9028 57.9133 69.5428 57.58C69.1828 57.2333 69.0028 56.6533 69.0028 55.84C69.0028 55.3067 69.0761 54.7133 69.2228 54.06C69.3828 53.4067 69.5695 52.7333 69.7828 52.04C70.0095 51.3333 70.2361 50.6533 70.4628 50C70.6895 49.3467 70.8761 48.7533 71.0228 48.22C71.1695 47.6867 71.2428 47.2667 71.2428 46.96C71.2428 46.6 71.1028 46.42 70.8228 46.42C70.4895 46.42 70.1761 46.6133 69.8828 47C69.5895 47.3733 69.2628 47.9 68.9028 48.58L68.7828 48.54C68.7828 47.4867 69.0628 46.5733 69.6228 45.8C70.1828 45.0133 70.9361 44.4067 71.8828 43.98C72.8428 43.5533 73.9095 43.34 75.0828 43.34C76.2695 43.34 77.2295 43.5467 77.9628 43.96C78.7095 44.36 79.2561 44.8867 79.6028 45.54C79.9628 46.18 80.1428 46.8667 80.1428 47.6C80.1428 48.2267 80.0228 48.8533 79.7828 49.48C79.5561 50.0933 79.2228 50.6533 78.7828 51.16C78.3561 51.6667 77.8495 52.0733 77.2628 52.38C76.6761 52.6867 76.0295 52.84 75.3228 52.84C74.5895 52.84 73.8295 52.6533 73.0428 52.28C72.8695 52.9333 72.7161 53.6 72.5828 54.28C72.4495 54.9467 72.3828 55.6333 72.3828 56.34C72.3828 56.6867 72.4028 57.0333 72.4428 57.38C72.2161 57.6067 71.9495 57.78 71.6428 57.9C71.3495 58.02 71.0561 58.08 70.7628 58.08ZM73.9628 50.84C74.4961 50.84 74.9628 50.6933 75.3628 50.4C75.7628 50.0933 76.0695 49.7133 76.2828 49.26C76.5095 48.7933 76.6228 48.3267 76.6228 47.86C76.6228 47.3133 76.4428 46.8267 76.0828 46.4C75.7361 45.9733 75.1628 45.76 74.3628 45.76C74.2561 45.76 74.1295 45.7667 73.9828 45.78C73.8495 45.7933 73.7095 45.8133 73.5628 45.84C73.6695 46.1733 73.7361 46.5067 73.7628 46.84C73.8028 47.16 73.8228 47.4733 73.8228 47.78C73.8228 48.3133 73.7828 48.8267 73.7028 49.32C73.6228 49.8133 73.5295 50.3 73.4228 50.78C73.6095 50.82 73.7895 50.84 73.9628 50.84ZM90.6108 58.14C90.1441 58.14 89.7374 58.0267 89.3908 57.8C89.0574 57.56 88.7641 57.2533 88.5108 56.88C88.2708 56.5067 88.0574 56.1 87.8708 55.66C87.6974 55.2067 87.5308 54.7733 87.3708 54.36C87.1308 53.6933 86.9108 53.1133 86.7108 52.62C86.5108 52.1133 86.2908 51.6867 86.0508 51.34C85.7974 52.3533 85.5908 53.3267 85.4308 54.26C85.2841 55.1933 85.1908 56.2333 85.1508 57.38C84.9108 57.6067 84.6374 57.78 84.3308 57.9C84.0374 58.02 83.7374 58.08 83.4308 58.08C82.9641 58.08 82.5508 57.92 82.1908 57.6C81.8308 57.2667 81.6508 56.7133 81.6508 55.94C81.6508 55.4067 81.7308 54.8067 81.8908 54.14C82.0508 53.4733 82.2441 52.7867 82.4708 52.08C82.7108 51.3733 82.9508 50.6867 83.1908 50.02C83.4308 49.3533 83.6308 48.7533 83.7908 48.22C83.9508 47.6733 84.0308 47.24 84.0308 46.92C84.0308 46.5867 83.9174 46.42 83.6908 46.42C83.4374 46.42 83.1308 46.6133 82.7708 47C82.4108 47.3733 82.0441 47.9 81.6708 48.58L81.5508 48.54C81.5508 47.74 81.7241 47.0267 82.0708 46.4C82.4174 45.7733 82.8841 45.2467 83.4708 44.82C84.0708 44.38 84.7574 44.0467 85.5308 43.82C86.3174 43.5933 87.1374 43.48 87.9908 43.48C89.1241 43.48 90.0441 43.66 90.7508 44.02C91.4574 44.3667 91.9774 44.82 92.3108 45.38C92.6574 45.9267 92.8308 46.5133 92.8308 47.14C92.8308 47.78 92.6641 48.4067 92.3308 49.02C92.0108 49.6333 91.5508 50.1467 90.9508 50.56C90.3641 50.96 89.6641 51.1933 88.8508 51.26C89.1308 51.4733 89.3708 51.7467 89.5708 52.08C89.7708 52.4 89.9774 52.7667 90.1908 53.18C90.3774 53.5533 90.5974 53.9133 90.8508 54.26C91.1041 54.5933 91.4508 54.76 91.8908 54.76C92.1174 54.76 92.3041 54.7067 92.4508 54.6C92.5974 54.48 92.7241 54.2867 92.8308 54.02L92.9508 54.08C93.0174 54.28 93.0574 54.4733 93.0708 54.66C93.0974 54.8467 93.1108 55.02 93.1108 55.18C93.1108 56.02 92.8774 56.7267 92.4108 57.3C91.9441 57.86 91.3441 58.14 90.6108 58.14ZM87.0508 49.5C87.5308 49.5 87.9441 49.3933 88.2908 49.18C88.6508 48.9533 88.9241 48.68 89.1108 48.36C89.3108 48.0267 89.4108 47.6933 89.4108 47.36C89.4108 46.9467 89.2508 46.5867 88.9308 46.28C88.6241 45.96 88.1174 45.8 87.4108 45.8C87.3041 45.8 87.1908 45.8067 87.0708 45.82C86.9641 45.82 86.8574 45.8267 86.7508 45.84C86.7641 45.9333 86.7708 46.0267 86.7708 46.12C86.7708 46.2 86.7708 46.24 86.7708 46.24C86.7708 46.8533 86.7441 47.4467 86.6908 48.02C86.6508 48.5933 86.5908 49.0733 86.5108 49.46C86.6041 49.4733 86.6908 49.4867 86.7708 49.5C86.8641 49.5 86.9574 49.5 87.0508 49.5ZM98.032 58.14C97.1387 58.14 96.3987 57.98 95.812 57.66C95.2254 57.3267 94.792 56.9 94.512 56.38C94.232 55.8467 94.092 55.2733 94.092 54.66C94.092 54.1133 94.1987 53.5733 94.412 53.04C94.6254 52.5067 94.9387 52.02 95.352 51.58C95.7787 51.14 96.292 50.7933 96.892 50.54C96.3454 50.1933 95.932 49.78 95.652 49.3C95.3854 48.8067 95.252 48.2933 95.252 47.76C95.252 47.0667 95.4787 46.3933 95.932 45.74C96.3854 45.0867 97.0454 44.5467 97.912 44.12C98.7787 43.6933 99.8187 43.48 101.032 43.48C101.872 43.48 102.539 43.5867 103.032 43.8C103.539 44 103.905 44.2667 104.132 44.6C104.359 44.92 104.472 45.2667 104.472 45.64C104.472 46.0667 104.339 46.4933 104.072 46.92C103.805 47.3333 103.419 47.6733 102.912 47.94C102.419 48.2067 101.812 48.34 101.092 48.34C101.305 47.7133 101.412 47.1933 101.412 46.78C101.412 46.3667 101.325 46.0667 101.152 45.88C100.979 45.6933 100.765 45.6 100.512 45.6C100.245 45.6 99.9587 45.7 99.652 45.9C99.3587 46.1 99.112 46.38 98.912 46.74C98.712 47.1 98.612 47.52 98.612 48C98.612 48.2533 98.652 48.54 98.732 48.86C98.812 49.1667 98.9387 49.4733 99.112 49.78C99.4054 49.5933 99.672 49.46 99.912 49.38C100.165 49.2867 100.392 49.24 100.592 49.24C101.005 49.24 101.305 49.3867 101.492 49.68C101.679 49.96 101.772 50.28 101.772 50.64C101.772 51.0667 101.639 51.4733 101.372 51.86C101.119 52.2467 100.739 52.44 100.232 52.44C99.7654 52.44 99.2187 52.22 98.592 51.78C97.8587 52.3 97.492 52.9133 97.492 53.62C97.492 54.1667 97.6587 54.58 97.992 54.86C98.3387 55.14 98.7787 55.28 99.312 55.28C99.992 55.28 100.752 55.0467 101.592 54.58C102.432 54.1 103.179 53.3867 103.832 52.44L103.992 52.54C103.965 53.4733 103.772 54.2933 103.412 55C103.065 55.6933 102.605 56.2733 102.032 56.74C101.472 57.2067 100.845 57.56 100.152 57.8C99.4587 58.0267 98.752 58.14 98.032 58.14ZM108.95 58.14C108.057 58.14 107.317 57.98 106.73 57.66C106.143 57.3267 105.71 56.9 105.43 56.38C105.15 55.8467 105.01 55.2733 105.01 54.66C105.01 54.1133 105.117 53.5733 105.33 53.04C105.543 52.5067 105.857 52.02 106.27 51.58C106.697 51.14 107.21 50.7933 107.81 50.54C107.263 50.1933 106.85 49.78 106.57 49.3C106.303 48.8067 106.17 48.2933 106.17 47.76C106.17 47.0667 106.397 46.3933 106.85 45.74C107.303 45.0867 107.963 44.5467 108.83 44.12C109.697 43.6933 110.737 43.48 111.95 43.48C112.79 43.48 113.457 43.5867 113.95 43.8C114.457 44 114.823 44.2667 115.05 44.6C115.277 44.92 115.39 45.2667 115.39 45.64C115.39 46.0667 115.257 46.4933 114.99 46.92C114.723 47.3333 114.337 47.6733 113.83 47.94C113.337 48.2067 112.73 48.34 112.01 48.34C112.223 47.7133 112.33 47.1933 112.33 46.78C112.33 46.3667 112.243 46.0667 112.07 45.88C111.897 45.6933 111.683 45.6 111.43 45.6C111.163 45.6 110.877 45.7 110.57 45.9C110.277 46.1 110.03 46.38 109.83 46.74C109.63 47.1 109.53 47.52 109.53 48C109.53 48.2533 109.57 48.54 109.65 48.86C109.73 49.1667 109.857 49.4733 110.03 49.78C110.323 49.5933 110.59 49.46 110.83 49.38C111.083 49.2867 111.31 49.24 111.51 49.24C111.923 49.24 112.223 49.3867 112.41 49.68C112.597 49.96 112.69 50.28 112.69 50.64C112.69 51.0667 112.557 51.4733 112.29 51.86C112.037 52.2467 111.657 52.44 111.15 52.44C110.683 52.44 110.137 52.22 109.51 51.78C108.777 52.3 108.41 52.9133 108.41 53.62C108.41 54.1667 108.577 54.58 108.91 54.86C109.257 55.14 109.697 55.28 110.23 55.28C110.91 55.28 111.67 55.0467 112.51 54.58C113.35 54.1 114.097 53.3867 114.75 52.44L114.91 52.54C114.883 53.4733 114.69 54.2933 114.33 55C113.983 55.6933 113.523 56.2733 112.95 56.74C112.39 57.2067 111.763 57.56 111.07 57.8C110.377 58.0267 109.67 58.14 108.95 58.14ZM120.552 58.08C120.139 58.08 119.772 57.9733 119.452 57.76C119.146 57.5467 118.999 57.2267 119.012 56.8C119.039 56.0533 119.092 55.2267 119.172 54.32C119.266 53.4133 119.372 52.4933 119.492 51.56C119.612 50.6133 119.732 49.7067 119.852 48.84C119.986 47.9733 120.106 47.2 120.212 46.52C119.972 46.4933 119.739 46.4733 119.512 46.46C119.286 46.4467 119.079 46.44 118.892 46.44C118.332 46.44 117.826 46.4933 117.372 46.6C116.932 46.7067 116.559 46.8933 116.252 47.16C116.252 46.32 116.319 45.64 116.452 45.12C116.599 44.5867 116.859 44.2 117.232 43.96C117.619 43.72 118.179 43.6 118.912 43.6C119.446 43.6 120.039 43.6467 120.692 43.74C121.359 43.82 122.032 43.9067 122.712 44C123.392 44.0933 124.026 44.14 124.612 44.14C125.092 44.14 125.519 44.0933 125.892 44C126.279 43.9067 126.572 43.74 126.772 43.5C127.066 43.5933 127.292 43.8 127.452 44.12C127.612 44.4267 127.692 44.7667 127.692 45.14C127.692 45.4733 127.619 45.8 127.472 46.12C127.326 46.4267 127.092 46.6867 126.772 46.9C126.452 47.1 126.019 47.2 125.472 47.2C125.219 47.2 124.906 47.18 124.532 47.14C124.172 47.0867 123.786 47.0333 123.372 46.98C123.226 47.78 123.072 48.74 122.912 49.86C122.766 50.9667 122.639 52.16 122.532 53.44C122.439 54.72 122.379 56.02 122.352 57.34C122.112 57.5933 121.826 57.78 121.492 57.9C121.172 58.02 120.859 58.08 120.552 58.08ZM132.762 58.08C132.349 58.08 131.982 57.98 131.662 57.78C131.342 57.58 131.182 57.2467 131.182 56.78C131.182 56.0467 131.336 55.3 131.642 54.54C131.962 53.78 132.349 53.0333 132.802 52.3C133.269 51.5533 133.729 50.8267 134.182 50.12C134.649 49.4133 135.036 48.74 135.342 48.1C135.662 47.46 135.822 46.8667 135.822 46.32C135.822 45.88 135.716 45.66 135.502 45.66C135.356 45.66 135.189 45.78 135.002 46.02C134.816 46.2467 134.682 46.5867 134.602 47.04L134.382 47C134.382 46.24 134.562 45.6 134.922 45.08C135.282 44.5467 135.742 44.1467 136.302 43.88C136.862 43.6133 137.436 43.48 138.022 43.48C138.702 43.48 139.336 43.6733 139.922 44.06C140.522 44.4467 140.936 45.06 141.162 45.9C141.256 46.2333 141.322 46.6067 141.362 47.02C141.416 47.4333 141.449 47.7933 141.462 48.1C141.476 48.3933 141.482 48.54 141.482 48.54C141.509 49.62 141.529 50.5333 141.542 51.28C141.569 52.0267 141.609 52.6533 141.662 53.16C141.716 53.6667 141.789 54.0933 141.882 54.44C141.976 54.7733 142.096 55.0467 142.242 55.26C142.402 55.46 142.602 55.56 142.842 55.56C143.069 55.56 143.262 55.4933 143.422 55.36C143.596 55.2267 143.709 55.1 143.762 54.98L143.902 55.08C143.902 55.6933 143.782 56.2267 143.542 56.68C143.302 57.1333 142.989 57.48 142.602 57.72C142.216 57.96 141.809 58.08 141.382 58.08C140.969 58.08 140.562 57.96 140.162 57.72C139.776 57.4667 139.436 57.08 139.142 56.56C138.849 56.04 138.656 55.3667 138.562 54.54C138.149 54.5133 137.742 54.4933 137.342 54.48C136.956 54.4533 136.602 54.44 136.282 54.44C136.069 54.44 135.862 54.4467 135.662 54.46C135.476 54.46 135.289 54.4667 135.102 54.48C134.982 54.8933 134.882 55.3133 134.802 55.74C134.736 56.1533 134.702 56.56 134.702 56.96C134.702 57.2667 134.502 57.5333 134.102 57.76C133.702 57.9733 133.256 58.08 132.762 58.08ZM135.762 52.62C136.096 52.5267 136.449 52.4667 136.822 52.44C137.196 52.4 137.596 52.38 138.022 52.38H138.462C138.436 51.3933 138.396 50.38 138.342 49.34C138.302 48.3 138.136 47.3333 137.842 46.44C137.736 47.4 137.469 48.4067 137.042 49.46C136.616 50.5133 136.189 51.5667 135.762 52.62ZM153.912 58.14C153.445 58.14 153.038 58.0267 152.692 57.8C152.358 57.56 152.065 57.2533 151.812 56.88C151.572 56.5067 151.358 56.1 151.172 55.66C150.998 55.2067 150.832 54.7733 150.672 54.36C150.432 53.6933 150.212 53.1133 150.012 52.62C149.812 52.1133 149.592 51.6867 149.352 51.34C149.098 52.3533 148.892 53.3267 148.732 54.26C148.585 55.1933 148.492 56.2333 148.452 57.38C148.212 57.6067 147.938 57.78 147.632 57.9C147.338 58.02 147.038 58.08 146.732 58.08C146.265 58.08 145.852 57.92 145.492 57.6C145.132 57.2667 144.952 56.7133 144.952 55.94C144.952 55.4067 145.032 54.8067 145.192 54.14C145.352 53.4733 145.545 52.7867 145.772 52.08C146.012 51.3733 146.252 50.6867 146.492 50.02C146.732 49.3533 146.932 48.7533 147.092 48.22C147.252 47.6733 147.332 47.24 147.332 46.92C147.332 46.5867 147.218 46.42 146.992 46.42C146.738 46.42 146.432 46.6133 146.072 47C145.712 47.3733 145.345 47.9 144.972 48.58L144.852 48.54C144.852 47.74 145.025 47.0267 145.372 46.4C145.718 45.7733 146.185 45.2467 146.772 44.82C147.372 44.38 148.058 44.0467 148.832 43.82C149.618 43.5933 150.438 43.48 151.292 43.48C152.425 43.48 153.345 43.66 154.052 44.02C154.758 44.3667 155.278 44.82 155.612 45.38C155.958 45.9267 156.132 46.5133 156.132 47.14C156.132 47.78 155.965 48.4067 155.632 49.02C155.312 49.6333 154.852 50.1467 154.252 50.56C153.665 50.96 152.965 51.1933 152.152 51.26C152.432 51.4733 152.672 51.7467 152.872 52.08C153.072 52.4 153.278 52.7667 153.492 53.18C153.678 53.5533 153.898 53.9133 154.152 54.26C154.405 54.5933 154.752 54.76 155.192 54.76C155.418 54.76 155.605 54.7067 155.752 54.6C155.898 54.48 156.025 54.2867 156.132 54.02L156.252 54.08C156.318 54.28 156.358 54.4733 156.372 54.66C156.398 54.8467 156.412 55.02 156.412 55.18C156.412 56.02 156.178 56.7267 155.712 57.3C155.245 57.86 154.645 58.14 153.912 58.14ZM150.352 49.5C150.832 49.5 151.245 49.3933 151.592 49.18C151.952 48.9533 152.225 48.68 152.412 48.36C152.612 48.0267 152.712 47.6933 152.712 47.36C152.712 46.9467 152.552 46.5867 152.232 46.28C151.925 45.96 151.418 45.8 150.712 45.8C150.605 45.8 150.492 45.8067 150.372 45.82C150.265 45.82 150.158 45.8267 150.052 45.84C150.065 45.9333 150.072 46.0267 150.072 46.12C150.072 46.2 150.072 46.24 150.072 46.24C150.072 46.8533 150.045 47.4467 149.992 48.02C149.952 48.5933 149.892 49.0733 149.812 49.46C149.905 49.4733 149.992 49.4867 150.072 49.5C150.165 49.5 150.258 49.5 150.352 49.5ZM161.548 58.08C161.135 58.08 160.768 57.9733 160.448 57.76C160.142 57.5467 159.995 57.2267 160.008 56.8C160.035 56.0533 160.088 55.2267 160.168 54.32C160.262 53.4133 160.368 52.4933 160.488 51.56C160.608 50.6133 160.728 49.7067 160.848 48.84C160.982 47.9733 161.102 47.2 161.208 46.52C160.968 46.4933 160.735 46.4733 160.508 46.46C160.282 46.4467 160.075 46.44 159.888 46.44C159.328 46.44 158.822 46.4933 158.368 46.6C157.928 46.7067 157.555 46.8933 157.248 47.16C157.248 46.32 157.315 45.64 157.448 45.12C157.595 44.5867 157.855 44.2 158.228 43.96C158.615 43.72 159.175 43.6 159.908 43.6C160.442 43.6 161.035 43.6467 161.688 43.74C162.355 43.82 163.028 43.9067 163.708 44C164.388 44.0933 165.022 44.14 165.608 44.14C166.088 44.14 166.515 44.0933 166.888 44C167.275 43.9067 167.568 43.74 167.768 43.5C168.062 43.5933 168.288 43.8 168.448 44.12C168.608 44.4267 168.688 44.7667 168.688 45.14C168.688 45.4733 168.615 45.8 168.468 46.12C168.322 46.4267 168.088 46.6867 167.768 46.9C167.448 47.1 167.015 47.2 166.468 47.2C166.215 47.2 165.902 47.18 165.528 47.14C165.168 47.0867 164.782 47.0333 164.368 46.98C164.222 47.78 164.068 48.74 163.908 49.86C163.762 50.9667 163.635 52.16 163.528 53.44C163.435 54.72 163.375 56.02 163.348 57.34C163.108 57.5933 162.822 57.78 162.488 57.9C162.168 58.02 161.855 58.08 161.548 58.08ZM171.818 58.12C170.924 58.12 170.184 57.9667 169.598 57.66C169.024 57.3533 168.598 56.96 168.318 56.48C168.038 56 167.898 55.5067 167.898 55C167.898 54.5067 168.018 54.04 168.258 53.6C168.498 53.1467 168.838 52.7733 169.278 52.48C169.731 52.1867 170.264 52.04 170.878 52.04C170.864 52.16 170.858 52.2733 170.858 52.38C170.858 52.4733 170.858 52.52 170.858 52.52C170.858 53.4133 170.944 54.12 171.118 54.64C171.291 55.1467 171.511 55.5133 171.778 55.74C172.044 55.9533 172.318 56.06 172.598 56.06C173.024 56.06 173.404 55.8933 173.738 55.56C174.071 55.2133 174.238 54.8133 174.238 54.36C174.238 53.8533 174.018 53.4067 173.578 53.02C173.151 52.6333 172.604 52.2067 171.938 51.74C171.564 51.46 171.164 51.1467 170.738 50.8C170.324 50.44 169.971 50.02 169.678 49.54C169.384 49.0467 169.238 48.4667 169.238 47.8C169.238 47.1067 169.398 46.4933 169.718 45.96C170.051 45.4267 170.484 44.98 171.018 44.62C171.564 44.2467 172.158 43.9667 172.798 43.78C173.451 43.58 174.098 43.48 174.738 43.48C175.524 43.48 176.171 43.6067 176.678 43.86C177.184 44.1133 177.564 44.44 177.818 44.84C178.071 45.24 178.198 45.6533 178.198 46.08C178.198 46.48 178.084 46.8667 177.858 47.24C177.644 47.6 177.324 47.8933 176.898 48.12C176.471 48.3467 175.944 48.46 175.318 48.46C175.358 48.2733 175.384 48.1067 175.398 47.96C175.411 47.8 175.418 47.66 175.418 47.54C175.418 46.8733 175.271 46.4 174.978 46.12C174.698 45.8267 174.384 45.68 174.038 45.68C173.704 45.68 173.384 45.8067 173.078 46.06C172.771 46.3 172.618 46.6933 172.618 47.24C172.618 47.7067 172.738 48.1067 172.978 48.44C173.231 48.7733 173.551 49.0667 173.938 49.32C174.338 49.5733 174.758 49.82 175.198 50.06C175.651 50.3 176.084 50.5667 176.498 50.86C176.924 51.14 177.278 51.4733 177.558 51.86C177.838 52.2467 177.978 52.7333 177.978 53.32C177.978 53.9333 177.811 54.5333 177.478 55.12C177.144 55.6933 176.691 56.2067 176.118 56.66C175.544 57.1 174.884 57.4533 174.138 57.72C173.404 57.9867 172.631 58.12 171.818 58.12Z" fill="url(#paint1_linear_318_4979)"/>
<defs>
<clipPath id="paint0_diamond_318_4979_clip_path"><path d="M96.9657 34.14C96.4324 34.14 95.9924 34.02 95.6457 33.78C95.299 33.54 95.019 33.22 94.8057 32.82C94.5924 32.4067 94.419 31.9533 94.2857 31.46C94.1657 30.9533 94.0524 30.4467 93.9457 29.94C93.8124 29.2333 93.6457 28.5733 93.4457 27.96C93.259 27.3467 92.9524 26.92 92.5257 26.68C92.259 27.6533 92.0057 28.6333 91.7657 29.62C91.5257 30.5933 91.4057 31.56 91.4057 32.52C91.4057 32.6667 91.4057 32.82 91.4057 32.98C91.419 33.1267 91.4324 33.2733 91.4457 33.42C90.979 33.86 90.439 34.08 89.8257 34.08C89.319 34.08 88.859 33.8867 88.4457 33.5C88.0457 33.1133 87.8457 32.4867 87.8457 31.62C87.8457 30.9667 87.9524 30.3 88.1657 29.62C88.379 28.94 88.6257 28.2533 88.9057 27.56C89.199 26.8667 89.4524 26.18 89.6657 25.5C89.879 24.8067 89.9857 24.1267 89.9857 23.46C89.9857 23.02 89.9324 22.7133 89.8257 22.54C89.719 22.3533 89.579 22.26 89.4057 22.26C89.219 22.26 89.0124 22.3533 88.7857 22.54C88.5724 22.7267 88.3657 23.0133 88.1657 23.4L88.0257 23.36C88.0524 22.68 88.2057 22.0533 88.4857 21.48C88.7657 20.9067 89.139 20.4533 89.6057 20.12C90.0857 19.7733 90.6057 19.6 91.1657 19.6C91.7257 19.6 92.219 19.8133 92.6457 20.24C93.0724 20.6533 93.2857 21.3733 93.2857 22.4C93.2857 22.8533 93.239 23.34 93.1457 23.86C93.0657 24.3667 92.9657 24.8867 92.8457 25.42C93.4457 24.9 93.9657 24.3267 94.4057 23.7C94.859 23.06 95.2057 22.44 95.4457 21.84C95.699 21.2267 95.8257 20.6933 95.8257 20.24C95.8257 19.9467 95.7657 19.7 95.6457 19.5C96.299 19.5 96.879 19.5933 97.3857 19.78C97.9057 19.9667 98.319 20.2267 98.6257 20.56C98.9324 20.88 99.0857 21.2533 99.0857 21.68C99.0857 22.2533 98.759 22.88 98.1057 23.56C97.4657 24.24 96.379 24.9133 94.8457 25.58C95.2324 25.7533 95.5457 26.0133 95.7857 26.36C96.039 26.6933 96.2457 27.06 96.4057 27.46C96.579 27.8467 96.7257 28.2267 96.8457 28.6C97.0724 29.2533 97.2924 29.8067 97.5057 30.26C97.7324 30.7 98.0524 30.92 98.4657 30.92C98.7324 30.92 98.9657 30.8333 99.1657 30.66C99.379 30.4867 99.5324 30.2933 99.6257 30.08L99.7457 30.14C99.7457 30.86 99.639 31.5267 99.4257 32.14C99.2124 32.74 98.899 33.2267 98.4857 33.6C98.0724 33.96 97.5657 34.14 96.9657 34.14ZM101.881 34.08C101.468 34.08 101.101 33.98 100.781 33.78C100.461 33.58 100.301 33.2467 100.301 32.78C100.301 32.0467 100.455 31.3 100.761 30.54C101.081 29.78 101.468 29.0333 101.921 28.3C102.388 27.5533 102.848 26.8267 103.301 26.12C103.768 25.4133 104.155 24.74 104.461 24.1C104.781 23.46 104.941 22.8667 104.941 22.32C104.941 21.88 104.835 21.66 104.621 21.66C104.475 21.66 104.308 21.78 104.121 22.02C103.935 22.2467 103.801 22.5867 103.721 23.04L103.501 23C103.501 22.24 103.681 21.6 104.041 21.08C104.401 20.5467 104.861 20.1467 105.421 19.88C105.981 19.6133 106.555 19.48 107.141 19.48C107.821 19.48 108.455 19.6733 109.041 20.06C109.641 20.4467 110.055 21.06 110.281 21.9C110.375 22.2333 110.441 22.6067 110.481 23.02C110.535 23.4333 110.568 23.7933 110.581 24.1C110.595 24.3933 110.601 24.54 110.601 24.54C110.628 25.62 110.648 26.5333 110.661 27.28C110.688 28.0267 110.728 28.6533 110.781 29.16C110.835 29.6667 110.908 30.0933 111.001 30.44C111.095 30.7733 111.215 31.0467 111.361 31.26C111.521 31.46 111.721 31.56 111.961 31.56C112.188 31.56 112.381 31.4933 112.541 31.36C112.715 31.2267 112.828 31.1 112.881 30.98L113.021 31.08C113.021 31.6933 112.901 32.2267 112.661 32.68C112.421 33.1333 112.108 33.48 111.721 33.72C111.335 33.96 110.928 34.08 110.501 34.08C110.088 34.08 109.681 33.96 109.281 33.72C108.895 33.4667 108.555 33.08 108.261 32.56C107.968 32.04 107.775 31.3667 107.681 30.54C107.268 30.5133 106.861 30.4933 106.461 30.48C106.075 30.4533 105.721 30.44 105.401 30.44C105.188 30.44 104.981 30.4467 104.781 30.46C104.595 30.46 104.408 30.4667 104.221 30.48C104.101 30.8933 104.001 31.3133 103.921 31.74C103.855 32.1533 103.821 32.56 103.821 32.96C103.821 33.2667 103.621 33.5333 103.221 33.76C102.821 33.9733 102.375 34.08 101.881 34.08ZM104.881 28.62C105.215 28.5267 105.568 28.4667 105.941 28.44C106.315 28.4 106.715 28.38 107.141 28.38H107.581C107.555 27.3933 107.515 26.38 107.461 25.34C107.421 24.3 107.255 23.3333 106.961 22.44C106.855 23.4 106.588 24.4067 106.161 25.46C105.735 26.5133 105.308 27.5667 104.881 28.62ZM128.926 34C128.499 34 128.086 33.88 127.686 33.64C127.299 33.4 126.986 33.02 126.746 32.5C126.506 31.98 126.386 31.3133 126.386 30.5C126.386 29.8333 126.466 29.0867 126.626 28.26C126.786 27.42 126.993 26.58 127.246 25.74C127.513 24.9 127.799 24.14 128.106 23.46C127.186 24.0733 126.379 24.92 125.686 26C124.993 27.08 124.393 28.3333 123.886 29.76C123.993 30.1867 124.079 30.5867 124.146 30.96C124.213 31.3333 124.246 31.6733 124.246 31.98C124.246 32.5667 124.106 33.0267 123.826 33.36C123.546 33.6933 123.059 33.86 122.366 33.86C121.753 33.86 121.299 33.7267 121.006 33.46C120.726 33.18 120.586 32.7933 120.586 32.3C120.586 31.98 120.639 31.6133 120.746 31.2C120.866 30.7867 121.033 30.34 121.246 29.86C121.006 29.1533 120.713 28.36 120.366 27.48C120.019 26.5867 119.533 25.6133 118.906 24.56C118.719 25.3467 118.526 26.1333 118.326 26.92C118.139 27.6933 117.979 28.4133 117.846 29.08C117.726 29.7333 117.666 30.2867 117.666 30.74C117.666 31.4733 117.866 31.84 118.266 31.84L118.306 31.88C118.306 32.32 118.193 32.7 117.966 33.02C117.753 33.3267 117.473 33.5667 117.126 33.74C116.793 33.9 116.439 33.98 116.066 33.98C115.706 33.98 115.353 33.8933 115.006 33.72C114.673 33.5467 114.399 33.28 114.186 32.92C113.973 32.5467 113.866 32.0733 113.866 31.5C113.866 30.9533 113.959 30.36 114.146 29.72C114.346 29.0667 114.593 28.4067 114.886 27.74C115.179 27.06 115.479 26.4 115.786 25.76C116.093 25.1067 116.366 24.5 116.606 23.94C116.859 23.3667 117.026 22.8667 117.106 22.44C116.839 22.2533 116.553 22.16 116.246 22.16C115.993 22.16 115.733 22.2467 115.466 22.42C115.213 22.58 114.973 22.8533 114.746 23.24L114.606 23.18C114.619 22.5 114.766 21.88 115.046 21.32C115.326 20.7467 115.693 20.2933 116.146 19.96C116.613 19.6133 117.119 19.44 117.666 19.44C118.293 19.44 118.939 19.7133 119.606 20.26C120.273 20.8067 120.886 21.7067 121.446 22.96C122.019 24.2133 122.479 25.9067 122.826 28.04C123.333 26.4 123.879 25.0267 124.466 23.92C125.053 22.8133 125.653 21.9333 126.266 21.28C126.893 20.6267 127.506 20.16 128.106 19.88C128.719 19.5867 129.299 19.44 129.846 19.44C130.526 19.44 131.133 19.6067 131.666 19.94C132.213 20.2733 132.639 20.6933 132.946 21.2C133.266 21.7067 133.426 22.2133 133.426 22.72C133.093 22.6267 132.759 22.56 132.426 22.52C132.106 22.48 131.793 22.46 131.486 22.46C131.179 22.46 130.886 22.48 130.606 22.52C130.486 23.1333 130.359 23.82 130.226 24.58C130.093 25.3267 129.973 26.08 129.866 26.84C129.773 27.6 129.726 28.3 129.726 28.94C129.726 29.5933 129.793 30.1267 129.926 30.54C130.059 30.9533 130.293 31.16 130.626 31.16C130.839 31.16 131.053 31.0667 131.266 30.88C131.493 30.6933 131.659 30.4067 131.766 30.02L131.906 30.08C131.906 30.96 131.759 31.6933 131.466 32.28C131.173 32.8533 130.793 33.2867 130.326 33.58C129.873 33.86 129.406 34 128.926 34ZM134.577 34.08C134.163 34.08 133.797 33.98 133.477 33.78C133.157 33.58 132.997 33.2467 132.997 32.78C132.997 32.0467 133.15 31.3 133.457 30.54C133.777 29.78 134.163 29.0333 134.617 28.3C135.083 27.5533 135.543 26.8267 135.997 26.12C136.463 25.4133 136.85 24.74 137.157 24.1C137.477 23.46 137.637 22.8667 137.637 22.32C137.637 21.88 137.53 21.66 137.317 21.66C137.17 21.66 137.003 21.78 136.817 22.02C136.63 22.2467 136.497 22.5867 136.417 23.04L136.197 23C136.197 22.24 136.377 21.6 136.737 21.08C137.097 20.5467 137.557 20.1467 138.117 19.88C138.677 19.6133 139.25 19.48 139.837 19.48C140.517 19.48 141.15 19.6733 141.737 20.06C142.337 20.4467 142.75 21.06 142.977 21.9C143.07 22.2333 143.137 22.6067 143.177 23.02C143.23 23.4333 143.263 23.7933 143.277 24.1C143.29 24.3933 143.297 24.54 143.297 24.54C143.323 25.62 143.343 26.5333 143.357 27.28C143.383 28.0267 143.423 28.6533 143.477 29.16C143.53 29.6667 143.603 30.0933 143.697 30.44C143.79 30.7733 143.91 31.0467 144.057 31.26C144.217 31.46 144.417 31.56 144.657 31.56C144.883 31.56 145.077 31.4933 145.237 31.36C145.41 31.2267 145.523 31.1 145.577 30.98L145.717 31.08C145.717 31.6933 145.597 32.2267 145.357 32.68C145.117 33.1333 144.803 33.48 144.417 33.72C144.03 33.96 143.623 34.08 143.197 34.08C142.783 34.08 142.377 33.96 141.977 33.72C141.59 33.4667 141.25 33.08 140.957 32.56C140.663 32.04 140.47 31.3667 140.377 30.54C139.963 30.5133 139.557 30.4933 139.157 30.48C138.77 30.4533 138.417 30.44 138.097 30.44C137.883 30.44 137.677 30.4467 137.477 30.46C137.29 30.46 137.103 30.4667 136.917 30.48C136.797 30.8933 136.697 31.3133 136.617 31.74C136.55 32.1533 136.517 32.56 136.517 32.96C136.517 33.2667 136.317 33.5333 135.917 33.76C135.517 33.9733 135.07 34.08 134.577 34.08ZM137.577 28.62C137.91 28.5267 138.263 28.4667 138.637 28.44C139.01 28.4 139.41 28.38 139.837 28.38H140.277C140.25 27.3933 140.21 26.38 140.157 25.34C140.117 24.3 139.95 23.3333 139.657 22.44C139.55 23.4 139.283 24.4067 138.857 25.46C138.43 26.5133 138.003 27.5667 137.577 28.62ZM155.734 34.14C155.254 34.14 154.707 34.0533 154.094 33.88C153.494 33.7067 152.86 33.52 152.194 33.32C151.54 33.1067 150.887 32.9533 150.234 32.86C149.78 33.2867 149.354 33.5933 148.954 33.78C148.567 33.9533 148.22 34.04 147.914 34.04C147.527 34.04 147.2 33.9267 146.934 33.7C146.667 33.4733 146.467 33.1867 146.334 32.84C146.2 32.48 146.134 32.1133 146.134 31.74C146.134 31.3533 146.2 30.9867 146.334 30.64C146.48 30.2933 146.7 30.0133 146.994 29.8C147.287 29.5733 147.66 29.46 148.114 29.46C148.207 29.46 148.307 29.4667 148.414 29.48C148.52 29.4933 148.634 29.5133 148.754 29.54C149.007 28.7667 149.227 27.9133 149.414 26.98C149.614 26.0333 149.767 25.1067 149.874 24.2C149.994 23.2933 150.054 22.5067 150.054 21.84C150.054 21.5733 150.04 21.3867 150.014 21.28C149.987 21.16 149.94 21.04 149.874 20.92L149.854 20.86C150.014 20.4333 150.28 20.1 150.654 19.86C151.027 19.62 151.42 19.5 151.834 19.5C152.287 19.5 152.66 19.6667 152.954 20C153.247 20.32 153.394 20.86 153.394 21.62C153.394 22.1 153.334 22.7 153.214 23.42C153.107 24.1267 152.954 24.8933 152.754 25.72C152.554 26.5333 152.334 27.34 152.094 28.14C151.854 28.94 151.614 29.6533 151.374 30.28C151.96 30.4133 152.547 30.5667 153.134 30.74C153.734 30.9133 154.32 31 154.894 31C155.334 31 155.754 30.92 156.154 30.76C156.567 30.6 156.954 30.3067 157.314 29.88C157.58 30.0533 157.774 30.3 157.894 30.62C158.027 30.94 158.094 31.28 158.094 31.64C158.094 32.04 158.007 32.4333 157.834 32.82C157.674 33.1933 157.42 33.5067 157.074 33.76C156.727 34.0133 156.28 34.14 155.734 34.14Z"/></clipPath><linearGradient id="paint0_diamond_318_4979" x1="0" y1="0" x2="500" y2="500" gradientUnits="userSpaceOnUse">
<stop offset="0.170734" stop-color="#FF6392"/>
<stop offset="1" stop-color="#FFE00F"/>
</linearGradient>
<linearGradient id="paint1_linear_318_4979" x1="123.5" y1="34" x2="123.5" y2="70" gradientUnits="userSpaceOnUse">
<stop stop-color="#FFE00F"/>
<stop offset="1" stop-color="#FF6392"/>
</linearGradient>
</defs>
</svg>
