<svg width="212" height="75" viewBox="0 0 212 75" fill="none" xmlns="http://www.w3.org/2000/svg">
<path d="M0 2H190.596V70H0V2Z" fill="#FAFAFA"/>
<ellipse cx="53.5096" cy="37" rx="14.7788" ry="15" fill="#16CD6D"/>
<path d="M52.1619 21.0987C42.2937 26.6886 26.5367 37.0626 28.5972 35.4806C27.4714 19.0729 29.6972 14.4119 38.773 9.27084C47.9298 4.90998 55.6395 5.99085 63.1946 13.6888C63.1946 13.6888 62.0301 15.5088 52.1619 21.0987Z" fill="#FF5758"/>
<path d="M41.4281 46.0468C50.6012 53.0468 65.0302 62.4071 62.832 61.0468C48.5626 67.047 41.328 66.8891 34.0466 59.9996C26.7651 53.1101 26.7767 46.0456 28.6879 36.547C28.6879 36.547 32.255 39.0468 41.4281 46.0468Z" fill="#FFE00F"/>
<path d="M29.0481 28C29.0481 45.397 29.0481 65.9979 29.0481 66.9979C14.7788 64.4979 4.0769 51.9979 4.0769 35.9979C5.09614 20.4979 14.2692 9 29.0481 5C29.0481 5 29.0481 10.603 29.0481 28Z" fill="#FF6392"/>
<g clip-path="url(#paint0_diamond_318_4980_clip_path)" data-figma-skip-parse="true"><g transform="matrix(0.0693077 0 0 0.018 129.442 28)"><rect x="0" y="0" width="1014.43" height="1055.56" fill="url(#paint0_diamond_318_4980)" opacity="1" shape-rendering="crispEdges"/><rect x="0" y="0" width="1014.43" height="1055.56" transform="scale(1 -1)" fill="url(#paint0_diamond_318_4980)" opacity="1" shape-rendering="crispEdges"/><rect x="0" y="0" width="1014.43" height="1055.56" transform="scale(-1 1)" fill="url(#paint0_diamond_318_4980)" opacity="1" shape-rendering="crispEdges"/><rect x="0" y="0" width="1014.43" height="1055.56" transform="scale(-1)" fill="url(#paint0_diamond_318_4980)" opacity="1" shape-rendering="crispEdges"/></g></g><path d="M103.408 34.14C102.875 34.14 102.435 34.02 102.088 33.78C101.741 33.54 101.461 33.22 101.248 32.82C101.035 32.4067 100.861 31.9533 100.728 31.46C100.608 30.9533 100.495 30.4467 100.388 29.94C100.255 29.2333 100.088 28.5733 99.8879 27.96C99.7013 27.3467 99.3946 26.92 98.9679 26.68C98.7013 27.6533 98.4479 28.6333 98.2079 29.62C97.9679 30.5933 97.8479 31.56 97.8479 32.52C97.8479 32.6667 97.8479 32.82 97.8479 32.98C97.8613 33.1267 97.8746 33.2733 97.8879 33.42C97.4213 33.86 96.8813 34.08 96.2679 34.08C95.7613 34.08 95.3013 33.8867 94.8879 33.5C94.4879 33.1133 94.2879 32.4867 94.2879 31.62C94.2879 30.9667 94.3946 30.3 94.6079 29.62C94.8213 28.94 95.0679 28.2533 95.3479 27.56C95.6413 26.8667 95.8946 26.18 96.1079 25.5C96.3213 24.8067 96.4279 24.1267 96.4279 23.46C96.4279 23.02 96.3746 22.7133 96.2679 22.54C96.1613 22.3533 96.0213 22.26 95.8479 22.26C95.6613 22.26 95.4546 22.3533 95.2279 22.54C95.0146 22.7267 94.8079 23.0133 94.6079 23.4L94.4679 23.36C94.4946 22.68 94.6479 22.0533 94.9279 21.48C95.2079 20.9067 95.5813 20.4533 96.0479 20.12C96.5279 19.7733 97.0479 19.6 97.6079 19.6C98.1679 19.6 98.6613 19.8133 99.0879 20.24C99.5146 20.6533 99.7279 21.3733 99.7279 22.4C99.7279 22.8533 99.6813 23.34 99.5879 23.86C99.5079 24.3667 99.4079 24.8867 99.2879 25.42C99.8879 24.9 100.408 24.3267 100.848 23.7C101.301 23.06 101.648 22.44 101.888 21.84C102.141 21.2267 102.268 20.6933 102.268 20.24C102.268 19.9467 102.208 19.7 102.088 19.5C102.741 19.5 103.321 19.5933 103.828 19.78C104.348 19.9667 104.761 20.2267 105.068 20.56C105.375 20.88 105.528 21.2533 105.528 21.68C105.528 22.2533 105.201 22.88 104.548 23.56C103.908 24.24 102.821 24.9133 101.288 25.58C101.675 25.7533 101.988 26.0133 102.228 26.36C102.481 26.6933 102.688 27.06 102.848 27.46C103.021 27.8467 103.168 28.2267 103.288 28.6C103.515 29.2533 103.735 29.8067 103.948 30.26C104.175 30.7 104.495 30.92 104.908 30.92C105.175 30.92 105.408 30.8333 105.608 30.66C105.821 30.4867 105.975 30.2933 106.068 30.08L106.188 30.14C106.188 30.86 106.081 31.5267 105.868 32.14C105.655 32.74 105.341 33.2267 104.928 33.6C104.515 33.96 104.008 34.14 103.408 34.14ZM108.324 34.08C107.91 34.08 107.544 33.98 107.224 33.78C106.904 33.58 106.744 33.2467 106.744 32.78C106.744 32.0467 106.897 31.3 107.204 30.54C107.524 29.78 107.91 29.0333 108.364 28.3C108.83 27.5533 109.29 26.8267 109.744 26.12C110.21 25.4133 110.597 24.74 110.904 24.1C111.224 23.46 111.384 22.8667 111.384 22.32C111.384 21.88 111.277 21.66 111.064 21.66C110.917 21.66 110.75 21.78 110.564 22.02C110.377 22.2467 110.244 22.5867 110.164 23.04L109.944 23C109.944 22.24 110.124 21.6 110.484 21.08C110.844 20.5467 111.304 20.1467 111.864 19.88C112.424 19.6133 112.997 19.48 113.584 19.48C114.264 19.48 114.897 19.6733 115.484 20.06C116.084 20.4467 116.497 21.06 116.724 21.9C116.817 22.2333 116.884 22.6067 116.924 23.02C116.977 23.4333 117.01 23.7933 117.024 24.1C117.037 24.3933 117.044 24.54 117.044 24.54C117.07 25.62 117.09 26.5333 117.104 27.28C117.13 28.0267 117.17 28.6533 117.224 29.16C117.277 29.6667 117.35 30.0933 117.444 30.44C117.537 30.7733 117.657 31.0467 117.804 31.26C117.964 31.46 118.164 31.56 118.404 31.56C118.63 31.56 118.824 31.4933 118.984 31.36C119.157 31.2267 119.27 31.1 119.324 30.98L119.464 31.08C119.464 31.6933 119.344 32.2267 119.104 32.68C118.864 33.1333 118.55 33.48 118.164 33.72C117.777 33.96 117.37 34.08 116.944 34.08C116.53 34.08 116.124 33.96 115.724 33.72C115.337 33.4667 114.997 33.08 114.704 32.56C114.41 32.04 114.217 31.3667 114.124 30.54C113.71 30.5133 113.304 30.4933 112.904 30.48C112.517 30.4533 112.164 30.44 111.844 30.44C111.63 30.44 111.424 30.4467 111.224 30.46C111.037 30.46 110.85 30.4667 110.664 30.48C110.544 30.8933 110.444 31.3133 110.364 31.74C110.297 32.1533 110.264 32.56 110.264 32.96C110.264 33.2667 110.064 33.5333 109.664 33.76C109.264 33.9733 108.817 34.08 108.324 34.08ZM111.324 28.62C111.657 28.5267 112.01 28.4667 112.384 28.44C112.757 28.4 113.157 28.38 113.584 28.38H114.024C113.997 27.3933 113.957 26.38 113.904 25.34C113.864 24.3 113.697 23.3333 113.404 22.44C113.297 23.4 113.03 24.4067 112.604 25.46C112.177 26.5133 111.75 27.5667 111.324 28.62ZM135.368 34C134.942 34 134.528 33.88 134.128 33.64C133.742 33.4 133.428 33.02 133.188 32.5C132.948 31.98 132.828 31.3133 132.828 30.5C132.828 29.8333 132.908 29.0867 133.068 28.26C133.228 27.42 133.435 26.58 133.688 25.74C133.955 24.9 134.242 24.14 134.548 23.46C133.628 24.0733 132.822 24.92 132.128 26C131.435 27.08 130.835 28.3333 130.328 29.76C130.435 30.1867 130.522 30.5867 130.588 30.96C130.655 31.3333 130.688 31.6733 130.688 31.98C130.688 32.5667 130.548 33.0267 130.268 33.36C129.988 33.6933 129.502 33.86 128.808 33.86C128.195 33.86 127.742 33.7267 127.448 33.46C127.168 33.18 127.028 32.7933 127.028 32.3C127.028 31.98 127.082 31.6133 127.188 31.2C127.308 30.7867 127.475 30.34 127.688 29.86C127.448 29.1533 127.155 28.36 126.808 27.48C126.462 26.5867 125.975 25.6133 125.348 24.56C125.162 25.3467 124.968 26.1333 124.768 26.92C124.582 27.6933 124.422 28.4133 124.288 29.08C124.168 29.7333 124.108 30.2867 124.108 30.74C124.108 31.4733 124.308 31.84 124.708 31.84L124.748 31.88C124.748 32.32 124.635 32.7 124.408 33.02C124.195 33.3267 123.915 33.5667 123.568 33.74C123.235 33.9 122.882 33.98 122.508 33.98C122.148 33.98 121.795 33.8933 121.448 33.72C121.115 33.5467 120.842 33.28 120.628 32.92C120.415 32.5467 120.308 32.0733 120.308 31.5C120.308 30.9533 120.402 30.36 120.588 29.72C120.788 29.0667 121.035 28.4067 121.328 27.74C121.622 27.06 121.922 26.4 122.228 25.76C122.535 25.1067 122.808 24.5 123.048 23.94C123.302 23.3667 123.468 22.8667 123.548 22.44C123.282 22.2533 122.995 22.16 122.688 22.16C122.435 22.16 122.175 22.2467 121.908 22.42C121.655 22.58 121.415 22.8533 121.188 23.24L121.048 23.18C121.062 22.5 121.208 21.88 121.488 21.32C121.768 20.7467 122.135 20.2933 122.588 19.96C123.055 19.6133 123.562 19.44 124.108 19.44C124.735 19.44 125.382 19.7133 126.048 20.26C126.715 20.8067 127.328 21.7067 127.888 22.96C128.462 24.2133 128.922 25.9067 129.268 28.04C129.775 26.4 130.322 25.0267 130.908 23.92C131.495 22.8133 132.095 21.9333 132.708 21.28C133.335 20.6267 133.948 20.16 134.548 19.88C135.162 19.5867 135.742 19.44 136.288 19.44C136.968 19.44 137.575 19.6067 138.108 19.94C138.655 20.2733 139.082 20.6933 139.388 21.2C139.708 21.7067 139.868 22.2133 139.868 22.72C139.535 22.6267 139.202 22.56 138.868 22.52C138.548 22.48 138.235 22.46 137.928 22.46C137.622 22.46 137.328 22.48 137.048 22.52C136.928 23.1333 136.802 23.82 136.668 24.58C136.535 25.3267 136.415 26.08 136.308 26.84C136.215 27.6 136.168 28.3 136.168 28.94C136.168 29.5933 136.235 30.1267 136.368 30.54C136.502 30.9533 136.735 31.16 137.068 31.16C137.282 31.16 137.495 31.0667 137.708 30.88C137.935 30.6933 138.102 30.4067 138.208 30.02L138.348 30.08C138.348 30.96 138.202 31.6933 137.908 32.28C137.615 32.8533 137.235 33.2867 136.768 33.58C136.315 33.86 135.848 34 135.368 34ZM141.019 34.08C140.606 34.08 140.239 33.98 139.919 33.78C139.599 33.58 139.439 33.2467 139.439 32.78C139.439 32.0467 139.592 31.3 139.899 30.54C140.219 29.78 140.606 29.0333 141.059 28.3C141.526 27.5533 141.986 26.8267 142.439 26.12C142.906 25.4133 143.292 24.74 143.599 24.1C143.919 23.46 144.079 22.8667 144.079 22.32C144.079 21.88 143.972 21.66 143.759 21.66C143.612 21.66 143.446 21.78 143.259 22.02C143.072 22.2467 142.939 22.5867 142.859 23.04L142.639 23C142.639 22.24 142.819 21.6 143.179 21.08C143.539 20.5467 143.999 20.1467 144.559 19.88C145.119 19.6133 145.692 19.48 146.279 19.48C146.959 19.48 147.592 19.6733 148.179 20.06C148.779 20.4467 149.192 21.06 149.419 21.9C149.512 22.2333 149.579 22.6067 149.619 23.02C149.672 23.4333 149.706 23.7933 149.719 24.1C149.732 24.3933 149.739 24.54 149.739 24.54C149.766 25.62 149.786 26.5333 149.799 27.28C149.826 28.0267 149.866 28.6533 149.919 29.16C149.972 29.6667 150.046 30.0933 150.139 30.44C150.232 30.7733 150.352 31.0467 150.499 31.26C150.659 31.46 150.859 31.56 151.099 31.56C151.326 31.56 151.519 31.4933 151.679 31.36C151.852 31.2267 151.966 31.1 152.019 30.98L152.159 31.08C152.159 31.6933 152.039 32.2267 151.799 32.68C151.559 33.1333 151.246 33.48 150.859 33.72C150.472 33.96 150.066 34.08 149.639 34.08C149.226 34.08 148.819 33.96 148.419 33.72C148.032 33.4667 147.692 33.08 147.399 32.56C147.106 32.04 146.912 31.3667 146.819 30.54C146.406 30.5133 145.999 30.4933 145.599 30.48C145.212 30.4533 144.859 30.44 144.539 30.44C144.326 30.44 144.119 30.4467 143.919 30.46C143.732 30.46 143.546 30.4667 143.359 30.48C143.239 30.8933 143.139 31.3133 143.059 31.74C142.992 32.1533 142.959 32.56 142.959 32.96C142.959 33.2667 142.759 33.5333 142.359 33.76C141.959 33.9733 141.512 34.08 141.019 34.08ZM144.019 28.62C144.352 28.5267 144.706 28.4667 145.079 28.44C145.452 28.4 145.852 28.38 146.279 28.38H146.719C146.692 27.3933 146.652 26.38 146.599 25.34C146.559 24.3 146.392 23.3333 146.099 22.44C145.992 23.4 145.726 24.4067 145.299 25.46C144.872 26.5133 144.446 27.5667 144.019 28.62ZM162.176 34.14C161.696 34.14 161.149 34.0533 160.536 33.88C159.936 33.7067 159.303 33.52 158.636 33.32C157.983 33.1067 157.329 32.9533 156.676 32.86C156.223 33.2867 155.796 33.5933 155.396 33.78C155.009 33.9533 154.663 34.04 154.356 34.04C153.969 34.04 153.643 33.9267 153.376 33.7C153.109 33.4733 152.909 33.1867 152.776 32.84C152.643 32.48 152.576 32.1133 152.576 31.74C152.576 31.3533 152.643 30.9867 152.776 30.64C152.923 30.2933 153.143 30.0133 153.436 29.8C153.729 29.5733 154.103 29.46 154.556 29.46C154.649 29.46 154.749 29.4667 154.856 29.48C154.963 29.4933 155.076 29.5133 155.196 29.54C155.449 28.7667 155.669 27.9133 155.856 26.98C156.056 26.0333 156.209 25.1067 156.316 24.2C156.436 23.2933 156.496 22.5067 156.496 21.84C156.496 21.5733 156.483 21.3867 156.456 21.28C156.429 21.16 156.383 21.04 156.316 20.92L156.296 20.86C156.456 20.4333 156.723 20.1 157.096 19.86C157.469 19.62 157.863 19.5 158.276 19.5C158.729 19.5 159.103 19.6667 159.396 20C159.689 20.32 159.836 20.86 159.836 21.62C159.836 22.1 159.776 22.7 159.656 23.42C159.549 24.1267 159.396 24.8933 159.196 25.72C158.996 26.5333 158.776 27.34 158.536 28.14C158.296 28.94 158.056 29.6533 157.816 30.28C158.403 30.4133 158.989 30.5667 159.576 30.74C160.176 30.9133 160.763 31 161.336 31C161.776 31 162.196 30.92 162.596 30.76C163.009 30.6 163.396 30.3067 163.756 29.88C164.023 30.0533 164.216 30.3 164.336 30.62C164.469 30.94 164.536 31.28 164.536 31.64C164.536 32.04 164.449 32.4333 164.276 32.82C164.116 33.1933 163.863 33.5067 163.516 33.76C163.169 34.0133 162.723 34.14 162.176 34.14Z" data-figma-gradient-fill="{&#34;type&#34;:&#34;GRADIENT_DIAMOND&#34;,&#34;stops&#34;:[{&#34;color&#34;:{&#34;r&#34;:1.0,&#34;g&#34;:0.38823530077934265,&#34;b&#34;:0.57254904508590698,&#34;a&#34;:1.0},&#34;position&#34;:0.17073430120944977},{&#34;color&#34;:{&#34;r&#34;:1.0,&#34;g&#34;:0.87843137979507446,&#34;b&#34;:0.058823529630899429,&#34;a&#34;:1.0},&#34;position&#34;:1.0}],&#34;stopsVar&#34;:[{&#34;color&#34;:{&#34;r&#34;:1.0,&#34;g&#34;:0.38823530077934265,&#34;b&#34;:0.57254904508590698,&#34;a&#34;:1.0},&#34;position&#34;:0.17073430120944977},{&#34;color&#34;:{&#34;r&#34;:1.0,&#34;g&#34;:0.87843137979507446,&#34;b&#34;:0.058823529630899429,&#34;a&#34;:1.0},&#34;position&#34;:1.0}],&#34;transform&#34;:{&#34;m00&#34;:138.61538696289062,&#34;m01&#34;:0.0,&#34;m02&#34;:60.1345214843750,&#34;m10&#34;:0.0,&#34;m11&#34;:36.0,&#34;m12&#34;:10.0},&#34;opacity&#34;:1.0,&#34;blendMode&#34;:&#34;NORMAL&#34;,&#34;visible&#34;:true}"/>
<path d="M77.2147 58.08C76.7614 58.08 76.3547 57.9133 75.9947 57.58C75.6347 57.2333 75.4547 56.6533 75.4547 55.84C75.4547 55.3067 75.528 54.7133 75.6747 54.06C75.8347 53.4067 76.0214 52.7333 76.2347 52.04C76.4614 51.3333 76.688 50.6533 76.9147 50C77.1414 49.3467 77.328 48.7533 77.4747 48.22C77.6214 47.6867 77.6947 47.2667 77.6947 46.96C77.6947 46.6 77.5547 46.42 77.2747 46.42C76.9414 46.42 76.628 46.6133 76.3347 47C76.0414 47.3733 75.7147 47.9 75.3547 48.58L75.2347 48.54C75.2347 47.4867 75.5147 46.5733 76.0747 45.8C76.6347 45.0133 77.388 44.4067 78.3347 43.98C79.2947 43.5533 80.3614 43.34 81.5347 43.34C82.7214 43.34 83.6814 43.5467 84.4147 43.96C85.1614 44.36 85.708 44.8867 86.0547 45.54C86.4147 46.18 86.5947 46.8667 86.5947 47.6C86.5947 48.2267 86.4747 48.8533 86.2347 49.48C86.008 50.0933 85.6747 50.6533 85.2347 51.16C84.808 51.6667 84.3014 52.0733 83.7147 52.38C83.128 52.6867 82.4814 52.84 81.7747 52.84C81.0414 52.84 80.2814 52.6533 79.4947 52.28C79.3214 52.9333 79.168 53.6 79.0347 54.28C78.9014 54.9467 78.8347 55.6333 78.8347 56.34C78.8347 56.6867 78.8547 57.0333 78.8947 57.38C78.668 57.6067 78.4014 57.78 78.0947 57.9C77.8014 58.02 77.508 58.08 77.2147 58.08ZM80.4147 50.84C80.948 50.84 81.4147 50.6933 81.8147 50.4C82.2147 50.0933 82.5214 49.7133 82.7347 49.26C82.9614 48.7933 83.0747 48.3267 83.0747 47.86C83.0747 47.3133 82.8947 46.8267 82.5347 46.4C82.188 45.9733 81.6147 45.76 80.8147 45.76C80.708 45.76 80.5814 45.7667 80.4347 45.78C80.3014 45.7933 80.1614 45.8133 80.0147 45.84C80.1214 46.1733 80.188 46.5067 80.2147 46.84C80.2547 47.16 80.2747 47.4733 80.2747 47.78C80.2747 48.3133 80.2347 48.8267 80.1547 49.32C80.0747 49.8133 79.9814 50.3 79.8747 50.78C80.0614 50.82 80.2414 50.84 80.4147 50.84ZM97.0627 58.14C96.596 58.14 96.1893 58.0267 95.8427 57.8C95.5093 57.56 95.216 57.2533 94.9627 56.88C94.7227 56.5067 94.5093 56.1 94.3227 55.66C94.1493 55.2067 93.9827 54.7733 93.8227 54.36C93.5827 53.6933 93.3627 53.1133 93.1627 52.62C92.9627 52.1133 92.7427 51.6867 92.5027 51.34C92.2493 52.3533 92.0427 53.3267 91.8827 54.26C91.736 55.1933 91.6427 56.2333 91.6027 57.38C91.3627 57.6067 91.0893 57.78 90.7827 57.9C90.4893 58.02 90.1893 58.08 89.8827 58.08C89.416 58.08 89.0027 57.92 88.6427 57.6C88.2827 57.2667 88.1027 56.7133 88.1027 55.94C88.1027 55.4067 88.1827 54.8067 88.3427 54.14C88.5027 53.4733 88.696 52.7867 88.9227 52.08C89.1627 51.3733 89.4027 50.6867 89.6427 50.02C89.8827 49.3533 90.0827 48.7533 90.2427 48.22C90.4027 47.6733 90.4827 47.24 90.4827 46.92C90.4827 46.5867 90.3693 46.42 90.1427 46.42C89.8893 46.42 89.5827 46.6133 89.2227 47C88.8627 47.3733 88.496 47.9 88.1227 48.58L88.0027 48.54C88.0027 47.74 88.176 47.0267 88.5227 46.4C88.8693 45.7733 89.336 45.2467 89.9227 44.82C90.5227 44.38 91.2093 44.0467 91.9827 43.82C92.7693 43.5933 93.5893 43.48 94.4427 43.48C95.576 43.48 96.496 43.66 97.2027 44.02C97.9093 44.3667 98.4293 44.82 98.7627 45.38C99.1093 45.9267 99.2827 46.5133 99.2827 47.14C99.2827 47.78 99.116 48.4067 98.7827 49.02C98.4627 49.6333 98.0027 50.1467 97.4027 50.56C96.816 50.96 96.116 51.1933 95.3027 51.26C95.5827 51.4733 95.8227 51.7467 96.0227 52.08C96.2227 52.4 96.4293 52.7667 96.6427 53.18C96.8293 53.5533 97.0493 53.9133 97.3027 54.26C97.556 54.5933 97.9027 54.76 98.3427 54.76C98.5693 54.76 98.756 54.7067 98.9027 54.6C99.0493 54.48 99.176 54.2867 99.2827 54.02L99.4027 54.08C99.4693 54.28 99.5093 54.4733 99.5227 54.66C99.5493 54.8467 99.5627 55.02 99.5627 55.18C99.5627 56.02 99.3293 56.7267 98.8627 57.3C98.396 57.86 97.796 58.14 97.0627 58.14ZM93.5027 49.5C93.9827 49.5 94.396 49.3933 94.7427 49.18C95.1027 48.9533 95.376 48.68 95.5627 48.36C95.7627 48.0267 95.8627 47.6933 95.8627 47.36C95.8627 46.9467 95.7027 46.5867 95.3827 46.28C95.076 45.96 94.5693 45.8 93.8627 45.8C93.756 45.8 93.6427 45.8067 93.5227 45.82C93.416 45.82 93.3093 45.8267 93.2027 45.84C93.216 45.9333 93.2227 46.0267 93.2227 46.12C93.2227 46.2 93.2227 46.24 93.2227 46.24C93.2227 46.8533 93.196 47.4467 93.1427 48.02C93.1027 48.5933 93.0427 49.0733 92.9627 49.46C93.056 49.4733 93.1427 49.4867 93.2227 49.5C93.316 49.5 93.4093 49.5 93.5027 49.5ZM104.484 58.14C103.591 58.14 102.851 57.98 102.264 57.66C101.677 57.3267 101.244 56.9 100.964 56.38C100.684 55.8467 100.544 55.2733 100.544 54.66C100.544 54.1133 100.651 53.5733 100.864 53.04C101.077 52.5067 101.391 52.02 101.804 51.58C102.231 51.14 102.744 50.7933 103.344 50.54C102.797 50.1933 102.384 49.78 102.104 49.3C101.837 48.8067 101.704 48.2933 101.704 47.76C101.704 47.0667 101.931 46.3933 102.384 45.74C102.837 45.0867 103.497 44.5467 104.364 44.12C105.231 43.6933 106.271 43.48 107.484 43.48C108.324 43.48 108.991 43.5867 109.484 43.8C109.991 44 110.357 44.2667 110.584 44.6C110.811 44.92 110.924 45.2667 110.924 45.64C110.924 46.0667 110.791 46.4933 110.524 46.92C110.257 47.3333 109.871 47.6733 109.364 47.94C108.871 48.2067 108.264 48.34 107.544 48.34C107.757 47.7133 107.864 47.1933 107.864 46.78C107.864 46.3667 107.777 46.0667 107.604 45.88C107.431 45.6933 107.217 45.6 106.964 45.6C106.697 45.6 106.411 45.7 106.104 45.9C105.811 46.1 105.564 46.38 105.364 46.74C105.164 47.1 105.064 47.52 105.064 48C105.064 48.2533 105.104 48.54 105.184 48.86C105.264 49.1667 105.391 49.4733 105.564 49.78C105.857 49.5933 106.124 49.46 106.364 49.38C106.617 49.2867 106.844 49.24 107.044 49.24C107.457 49.24 107.757 49.3867 107.944 49.68C108.131 49.96 108.224 50.28 108.224 50.64C108.224 51.0667 108.091 51.4733 107.824 51.86C107.571 52.2467 107.191 52.44 106.684 52.44C106.217 52.44 105.671 52.22 105.044 51.78C104.311 52.3 103.944 52.9133 103.944 53.62C103.944 54.1667 104.111 54.58 104.444 54.86C104.791 55.14 105.231 55.28 105.764 55.28C106.444 55.28 107.204 55.0467 108.044 54.58C108.884 54.1 109.631 53.3867 110.284 52.44L110.444 52.54C110.417 53.4733 110.224 54.2933 109.864 55C109.517 55.6933 109.057 56.2733 108.484 56.74C107.924 57.2067 107.297 57.56 106.604 57.8C105.911 58.0267 105.204 58.14 104.484 58.14ZM115.402 58.14C114.509 58.14 113.769 57.98 113.182 57.66C112.595 57.3267 112.162 56.9 111.882 56.38C111.602 55.8467 111.462 55.2733 111.462 54.66C111.462 54.1133 111.569 53.5733 111.782 53.04C111.995 52.5067 112.309 52.02 112.722 51.58C113.149 51.14 113.662 50.7933 114.262 50.54C113.715 50.1933 113.302 49.78 113.022 49.3C112.755 48.8067 112.622 48.2933 112.622 47.76C112.622 47.0667 112.849 46.3933 113.302 45.74C113.755 45.0867 114.415 44.5467 115.282 44.12C116.149 43.6933 117.189 43.48 118.402 43.48C119.242 43.48 119.909 43.5867 120.402 43.8C120.909 44 121.275 44.2667 121.502 44.6C121.729 44.92 121.842 45.2667 121.842 45.64C121.842 46.0667 121.709 46.4933 121.442 46.92C121.175 47.3333 120.789 47.6733 120.282 47.94C119.789 48.2067 119.182 48.34 118.462 48.34C118.675 47.7133 118.782 47.1933 118.782 46.78C118.782 46.3667 118.695 46.0667 118.522 45.88C118.349 45.6933 118.135 45.6 117.882 45.6C117.615 45.6 117.329 45.7 117.022 45.9C116.729 46.1 116.482 46.38 116.282 46.74C116.082 47.1 115.982 47.52 115.982 48C115.982 48.2533 116.022 48.54 116.102 48.86C116.182 49.1667 116.309 49.4733 116.482 49.78C116.775 49.5933 117.042 49.46 117.282 49.38C117.535 49.2867 117.762 49.24 117.962 49.24C118.375 49.24 118.675 49.3867 118.862 49.68C119.049 49.96 119.142 50.28 119.142 50.64C119.142 51.0667 119.009 51.4733 118.742 51.86C118.489 52.2467 118.109 52.44 117.602 52.44C117.135 52.44 116.589 52.22 115.962 51.78C115.229 52.3 114.862 52.9133 114.862 53.62C114.862 54.1667 115.029 54.58 115.362 54.86C115.709 55.14 116.149 55.28 116.682 55.28C117.362 55.28 118.122 55.0467 118.962 54.58C119.802 54.1 120.549 53.3867 121.202 52.44L121.362 52.54C121.335 53.4733 121.142 54.2933 120.782 55C120.435 55.6933 119.975 56.2733 119.402 56.74C118.842 57.2067 118.215 57.56 117.522 57.8C116.829 58.0267 116.122 58.14 115.402 58.14ZM127.004 58.08C126.591 58.08 126.224 57.9733 125.904 57.76C125.597 57.5467 125.451 57.2267 125.464 56.8C125.491 56.0533 125.544 55.2267 125.624 54.32C125.717 53.4133 125.824 52.4933 125.944 51.56C126.064 50.6133 126.184 49.7067 126.304 48.84C126.437 47.9733 126.557 47.2 126.664 46.52C126.424 46.4933 126.191 46.4733 125.964 46.46C125.737 46.4467 125.531 46.44 125.344 46.44C124.784 46.44 124.277 46.4933 123.824 46.6C123.384 46.7067 123.011 46.8933 122.704 47.16C122.704 46.32 122.771 45.64 122.904 45.12C123.051 44.5867 123.311 44.2 123.684 43.96C124.071 43.72 124.631 43.6 125.364 43.6C125.897 43.6 126.491 43.6467 127.144 43.74C127.811 43.82 128.484 43.9067 129.164 44C129.844 44.0933 130.477 44.14 131.064 44.14C131.544 44.14 131.971 44.0933 132.344 44C132.731 43.9067 133.024 43.74 133.224 43.5C133.517 43.5933 133.744 43.8 133.904 44.12C134.064 44.4267 134.144 44.7667 134.144 45.14C134.144 45.4733 134.071 45.8 133.924 46.12C133.777 46.4267 133.544 46.6867 133.224 46.9C132.904 47.1 132.471 47.2 131.924 47.2C131.671 47.2 131.357 47.18 130.984 47.14C130.624 47.0867 130.237 47.0333 129.824 46.98C129.677 47.78 129.524 48.74 129.364 49.86C129.217 50.9667 129.091 52.16 128.984 53.44C128.891 54.72 128.831 56.02 128.804 57.34C128.564 57.5933 128.277 57.78 127.944 57.9C127.624 58.02 127.311 58.08 127.004 58.08ZM139.214 58.08C138.801 58.08 138.434 57.98 138.114 57.78C137.794 57.58 137.634 57.2467 137.634 56.78C137.634 56.0467 137.788 55.3 138.094 54.54C138.414 53.78 138.801 53.0333 139.254 52.3C139.721 51.5533 140.181 50.8267 140.634 50.12C141.101 49.4133 141.488 48.74 141.794 48.1C142.114 47.46 142.274 46.8667 142.274 46.32C142.274 45.88 142.168 45.66 141.954 45.66C141.808 45.66 141.641 45.78 141.454 46.02C141.268 46.2467 141.134 46.5867 141.054 47.04L140.834 47C140.834 46.24 141.014 45.6 141.374 45.08C141.734 44.5467 142.194 44.1467 142.754 43.88C143.314 43.6133 143.888 43.48 144.474 43.48C145.154 43.48 145.788 43.6733 146.374 44.06C146.974 44.4467 147.388 45.06 147.614 45.9C147.708 46.2333 147.774 46.6067 147.814 47.02C147.868 47.4333 147.901 47.7933 147.914 48.1C147.928 48.3933 147.934 48.54 147.934 48.54C147.961 49.62 147.981 50.5333 147.994 51.28C148.021 52.0267 148.061 52.6533 148.114 53.16C148.168 53.6667 148.241 54.0933 148.334 54.44C148.428 54.7733 148.548 55.0467 148.694 55.26C148.854 55.46 149.054 55.56 149.294 55.56C149.521 55.56 149.714 55.4933 149.874 55.36C150.048 55.2267 150.161 55.1 150.214 54.98L150.354 55.08C150.354 55.6933 150.234 56.2267 149.994 56.68C149.754 57.1333 149.441 57.48 149.054 57.72C148.668 57.96 148.261 58.08 147.834 58.08C147.421 58.08 147.014 57.96 146.614 57.72C146.228 57.4667 145.888 57.08 145.594 56.56C145.301 56.04 145.108 55.3667 145.014 54.54C144.601 54.5133 144.194 54.4933 143.794 54.48C143.408 54.4533 143.054 54.44 142.734 54.44C142.521 54.44 142.314 54.4467 142.114 54.46C141.928 54.46 141.741 54.4667 141.554 54.48C141.434 54.8933 141.334 55.3133 141.254 55.74C141.188 56.1533 141.154 56.56 141.154 56.96C141.154 57.2667 140.954 57.5333 140.554 57.76C140.154 57.9733 139.708 58.08 139.214 58.08ZM142.214 52.62C142.548 52.5267 142.901 52.4667 143.274 52.44C143.648 52.4 144.048 52.38 144.474 52.38H144.914C144.888 51.3933 144.848 50.38 144.794 49.34C144.754 48.3 144.588 47.3333 144.294 46.44C144.188 47.4 143.921 48.4067 143.494 49.46C143.068 50.5133 142.641 51.5667 142.214 52.62ZM160.363 58.14C159.897 58.14 159.49 58.0267 159.143 57.8C158.81 57.56 158.517 57.2533 158.263 56.88C158.023 56.5067 157.81 56.1 157.623 55.66C157.45 55.2067 157.283 54.7733 157.123 54.36C156.883 53.6933 156.663 53.1133 156.463 52.62C156.263 52.1133 156.043 51.6867 155.803 51.34C155.55 52.3533 155.343 53.3267 155.183 54.26C155.037 55.1933 154.943 56.2333 154.903 57.38C154.663 57.6067 154.39 57.78 154.083 57.9C153.79 58.02 153.49 58.08 153.183 58.08C152.717 58.08 152.303 57.92 151.943 57.6C151.583 57.2667 151.403 56.7133 151.403 55.94C151.403 55.4067 151.483 54.8067 151.643 54.14C151.803 53.4733 151.997 52.7867 152.223 52.08C152.463 51.3733 152.703 50.6867 152.943 50.02C153.183 49.3533 153.383 48.7533 153.543 48.22C153.703 47.6733 153.783 47.24 153.783 46.92C153.783 46.5867 153.67 46.42 153.443 46.42C153.19 46.42 152.883 46.6133 152.523 47C152.163 47.3733 151.797 47.9 151.423 48.58L151.303 48.54C151.303 47.74 151.477 47.0267 151.823 46.4C152.17 45.7733 152.637 45.2467 153.223 44.82C153.823 44.38 154.51 44.0467 155.283 43.82C156.07 43.5933 156.89 43.48 157.743 43.48C158.877 43.48 159.797 43.66 160.503 44.02C161.21 44.3667 161.73 44.82 162.063 45.38C162.41 45.9267 162.583 46.5133 162.583 47.14C162.583 47.78 162.417 48.4067 162.083 49.02C161.763 49.6333 161.303 50.1467 160.703 50.56C160.117 50.96 159.417 51.1933 158.603 51.26C158.883 51.4733 159.123 51.7467 159.323 52.08C159.523 52.4 159.73 52.7667 159.943 53.18C160.13 53.5533 160.35 53.9133 160.603 54.26C160.857 54.5933 161.203 54.76 161.643 54.76C161.87 54.76 162.057 54.7067 162.203 54.6C162.35 54.48 162.477 54.2867 162.583 54.02L162.703 54.08C162.77 54.28 162.81 54.4733 162.823 54.66C162.85 54.8467 162.863 55.02 162.863 55.18C162.863 56.02 162.63 56.7267 162.163 57.3C161.697 57.86 161.097 58.14 160.363 58.14ZM156.803 49.5C157.283 49.5 157.697 49.3933 158.043 49.18C158.403 48.9533 158.677 48.68 158.863 48.36C159.063 48.0267 159.163 47.6933 159.163 47.36C159.163 46.9467 159.003 46.5867 158.683 46.28C158.377 45.96 157.87 45.8 157.163 45.8C157.057 45.8 156.943 45.8067 156.823 45.82C156.717 45.82 156.61 45.8267 156.503 45.84C156.517 45.9333 156.523 46.0267 156.523 46.12C156.523 46.2 156.523 46.24 156.523 46.24C156.523 46.8533 156.497 47.4467 156.443 48.02C156.403 48.5933 156.343 49.0733 156.263 49.46C156.357 49.4733 156.443 49.4867 156.523 49.5C156.617 49.5 156.71 49.5 156.803 49.5ZM168 58.08C167.587 58.08 167.22 57.9733 166.9 57.76C166.594 57.5467 166.447 57.2267 166.46 56.8C166.487 56.0533 166.54 55.2267 166.62 54.32C166.714 53.4133 166.82 52.4933 166.94 51.56C167.06 50.6133 167.18 49.7067 167.3 48.84C167.434 47.9733 167.554 47.2 167.66 46.52C167.42 46.4933 167.187 46.4733 166.96 46.46C166.734 46.4467 166.527 46.44 166.34 46.44C165.78 46.44 165.274 46.4933 164.82 46.6C164.38 46.7067 164.007 46.8933 163.7 47.16C163.7 46.32 163.767 45.64 163.9 45.12C164.047 44.5867 164.307 44.2 164.68 43.96C165.067 43.72 165.627 43.6 166.36 43.6C166.894 43.6 167.487 43.6467 168.14 43.74C168.807 43.82 169.48 43.9067 170.16 44C170.84 44.0933 171.474 44.14 172.06 44.14C172.54 44.14 172.967 44.0933 173.34 44C173.727 43.9067 174.02 43.74 174.22 43.5C174.514 43.5933 174.74 43.8 174.9 44.12C175.06 44.4267 175.14 44.7667 175.14 45.14C175.14 45.4733 175.067 45.8 174.92 46.12C174.774 46.4267 174.54 46.6867 174.22 46.9C173.9 47.1 173.467 47.2 172.92 47.2C172.667 47.2 172.354 47.18 171.98 47.14C171.62 47.0867 171.234 47.0333 170.82 46.98C170.674 47.78 170.52 48.74 170.36 49.86C170.214 50.9667 170.087 52.16 169.98 53.44C169.887 54.72 169.827 56.02 169.8 57.34C169.56 57.5933 169.274 57.78 168.94 57.9C168.62 58.02 168.307 58.08 168 58.08ZM178.27 58.12C177.376 58.12 176.636 57.9667 176.05 57.66C175.476 57.3533 175.05 56.96 174.77 56.48C174.49 56 174.35 55.5067 174.35 55C174.35 54.5067 174.47 54.04 174.71 53.6C174.95 53.1467 175.29 52.7733 175.73 52.48C176.183 52.1867 176.716 52.04 177.33 52.04C177.316 52.16 177.31 52.2733 177.31 52.38C177.31 52.4733 177.31 52.52 177.31 52.52C177.31 53.4133 177.396 54.12 177.57 54.64C177.743 55.1467 177.963 55.5133 178.23 55.74C178.496 55.9533 178.77 56.06 179.05 56.06C179.476 56.06 179.856 55.8933 180.19 55.56C180.523 55.2133 180.69 54.8133 180.69 54.36C180.69 53.8533 180.47 53.4067 180.03 53.02C179.603 52.6333 179.056 52.2067 178.39 51.74C178.016 51.46 177.616 51.1467 177.19 50.8C176.776 50.44 176.423 50.02 176.13 49.54C175.836 49.0467 175.69 48.4667 175.69 47.8C175.69 47.1067 175.85 46.4933 176.17 45.96C176.503 45.4267 176.936 44.98 177.47 44.62C178.016 44.2467 178.61 43.9667 179.25 43.78C179.903 43.58 180.55 43.48 181.19 43.48C181.976 43.48 182.623 43.6067 183.13 43.86C183.636 44.1133 184.016 44.44 184.27 44.84C184.523 45.24 184.65 45.6533 184.65 46.08C184.65 46.48 184.536 46.8667 184.31 47.24C184.096 47.6 183.776 47.8933 183.35 48.12C182.923 48.3467 182.396 48.46 181.77 48.46C181.81 48.2733 181.836 48.1067 181.85 47.96C181.863 47.8 181.87 47.66 181.87 47.54C181.87 46.8733 181.723 46.4 181.43 46.12C181.15 45.8267 180.836 45.68 180.49 45.68C180.156 45.68 179.836 45.8067 179.53 46.06C179.223 46.3 179.07 46.6933 179.07 47.24C179.07 47.7067 179.19 48.1067 179.43 48.44C179.683 48.7733 180.003 49.0667 180.39 49.32C180.79 49.5733 181.21 49.82 181.65 50.06C182.103 50.3 182.536 50.5667 182.95 50.86C183.376 51.14 183.73 51.4733 184.01 51.86C184.29 52.2467 184.43 52.7333 184.43 53.32C184.43 53.9333 184.263 54.5333 183.93 55.12C183.596 55.6933 183.143 56.2067 182.57 56.66C181.996 57.1 181.336 57.4533 180.59 57.72C179.856 57.9867 179.083 58.12 178.27 58.12Z" fill="url(#paint1_linear_318_4980)"/>
<defs>
<clipPath id="paint0_diamond_318_4980_clip_path"><path d="M103.408 34.14C102.875 34.14 102.435 34.02 102.088 33.78C101.741 33.54 101.461 33.22 101.248 32.82C101.035 32.4067 100.861 31.9533 100.728 31.46C100.608 30.9533 100.495 30.4467 100.388 29.94C100.255 29.2333 100.088 28.5733 99.8879 27.96C99.7013 27.3467 99.3946 26.92 98.9679 26.68C98.7013 27.6533 98.4479 28.6333 98.2079 29.62C97.9679 30.5933 97.8479 31.56 97.8479 32.52C97.8479 32.6667 97.8479 32.82 97.8479 32.98C97.8613 33.1267 97.8746 33.2733 97.8879 33.42C97.4213 33.86 96.8813 34.08 96.2679 34.08C95.7613 34.08 95.3013 33.8867 94.8879 33.5C94.4879 33.1133 94.2879 32.4867 94.2879 31.62C94.2879 30.9667 94.3946 30.3 94.6079 29.62C94.8213 28.94 95.0679 28.2533 95.3479 27.56C95.6413 26.8667 95.8946 26.18 96.1079 25.5C96.3213 24.8067 96.4279 24.1267 96.4279 23.46C96.4279 23.02 96.3746 22.7133 96.2679 22.54C96.1613 22.3533 96.0213 22.26 95.8479 22.26C95.6613 22.26 95.4546 22.3533 95.2279 22.54C95.0146 22.7267 94.8079 23.0133 94.6079 23.4L94.4679 23.36C94.4946 22.68 94.6479 22.0533 94.9279 21.48C95.2079 20.9067 95.5813 20.4533 96.0479 20.12C96.5279 19.7733 97.0479 19.6 97.6079 19.6C98.1679 19.6 98.6613 19.8133 99.0879 20.24C99.5146 20.6533 99.7279 21.3733 99.7279 22.4C99.7279 22.8533 99.6813 23.34 99.5879 23.86C99.5079 24.3667 99.4079 24.8867 99.2879 25.42C99.8879 24.9 100.408 24.3267 100.848 23.7C101.301 23.06 101.648 22.44 101.888 21.84C102.141 21.2267 102.268 20.6933 102.268 20.24C102.268 19.9467 102.208 19.7 102.088 19.5C102.741 19.5 103.321 19.5933 103.828 19.78C104.348 19.9667 104.761 20.2267 105.068 20.56C105.375 20.88 105.528 21.2533 105.528 21.68C105.528 22.2533 105.201 22.88 104.548 23.56C103.908 24.24 102.821 24.9133 101.288 25.58C101.675 25.7533 101.988 26.0133 102.228 26.36C102.481 26.6933 102.688 27.06 102.848 27.46C103.021 27.8467 103.168 28.2267 103.288 28.6C103.515 29.2533 103.735 29.8067 103.948 30.26C104.175 30.7 104.495 30.92 104.908 30.92C105.175 30.92 105.408 30.8333 105.608 30.66C105.821 30.4867 105.975 30.2933 106.068 30.08L106.188 30.14C106.188 30.86 106.081 31.5267 105.868 32.14C105.655 32.74 105.341 33.2267 104.928 33.6C104.515 33.96 104.008 34.14 103.408 34.14ZM108.324 34.08C107.91 34.08 107.544 33.98 107.224 33.78C106.904 33.58 106.744 33.2467 106.744 32.78C106.744 32.0467 106.897 31.3 107.204 30.54C107.524 29.78 107.91 29.0333 108.364 28.3C108.83 27.5533 109.29 26.8267 109.744 26.12C110.21 25.4133 110.597 24.74 110.904 24.1C111.224 23.46 111.384 22.8667 111.384 22.32C111.384 21.88 111.277 21.66 111.064 21.66C110.917 21.66 110.75 21.78 110.564 22.02C110.377 22.2467 110.244 22.5867 110.164 23.04L109.944 23C109.944 22.24 110.124 21.6 110.484 21.08C110.844 20.5467 111.304 20.1467 111.864 19.88C112.424 19.6133 112.997 19.48 113.584 19.48C114.264 19.48 114.897 19.6733 115.484 20.06C116.084 20.4467 116.497 21.06 116.724 21.9C116.817 22.2333 116.884 22.6067 116.924 23.02C116.977 23.4333 117.01 23.7933 117.024 24.1C117.037 24.3933 117.044 24.54 117.044 24.54C117.07 25.62 117.09 26.5333 117.104 27.28C117.13 28.0267 117.17 28.6533 117.224 29.16C117.277 29.6667 117.35 30.0933 117.444 30.44C117.537 30.7733 117.657 31.0467 117.804 31.26C117.964 31.46 118.164 31.56 118.404 31.56C118.63 31.56 118.824 31.4933 118.984 31.36C119.157 31.2267 119.27 31.1 119.324 30.98L119.464 31.08C119.464 31.6933 119.344 32.2267 119.104 32.68C118.864 33.1333 118.55 33.48 118.164 33.72C117.777 33.96 117.37 34.08 116.944 34.08C116.53 34.08 116.124 33.96 115.724 33.72C115.337 33.4667 114.997 33.08 114.704 32.56C114.41 32.04 114.217 31.3667 114.124 30.54C113.71 30.5133 113.304 30.4933 112.904 30.48C112.517 30.4533 112.164 30.44 111.844 30.44C111.63 30.44 111.424 30.4467 111.224 30.46C111.037 30.46 110.85 30.4667 110.664 30.48C110.544 30.8933 110.444 31.3133 110.364 31.74C110.297 32.1533 110.264 32.56 110.264 32.96C110.264 33.2667 110.064 33.5333 109.664 33.76C109.264 33.9733 108.817 34.08 108.324 34.08ZM111.324 28.62C111.657 28.5267 112.01 28.4667 112.384 28.44C112.757 28.4 113.157 28.38 113.584 28.38H114.024C113.997 27.3933 113.957 26.38 113.904 25.34C113.864 24.3 113.697 23.3333 113.404 22.44C113.297 23.4 113.03 24.4067 112.604 25.46C112.177 26.5133 111.75 27.5667 111.324 28.62ZM135.368 34C134.942 34 134.528 33.88 134.128 33.64C133.742 33.4 133.428 33.02 133.188 32.5C132.948 31.98 132.828 31.3133 132.828 30.5C132.828 29.8333 132.908 29.0867 133.068 28.26C133.228 27.42 133.435 26.58 133.688 25.74C133.955 24.9 134.242 24.14 134.548 23.46C133.628 24.0733 132.822 24.92 132.128 26C131.435 27.08 130.835 28.3333 130.328 29.76C130.435 30.1867 130.522 30.5867 130.588 30.96C130.655 31.3333 130.688 31.6733 130.688 31.98C130.688 32.5667 130.548 33.0267 130.268 33.36C129.988 33.6933 129.502 33.86 128.808 33.86C128.195 33.86 127.742 33.7267 127.448 33.46C127.168 33.18 127.028 32.7933 127.028 32.3C127.028 31.98 127.082 31.6133 127.188 31.2C127.308 30.7867 127.475 30.34 127.688 29.86C127.448 29.1533 127.155 28.36 126.808 27.48C126.462 26.5867 125.975 25.6133 125.348 24.56C125.162 25.3467 124.968 26.1333 124.768 26.92C124.582 27.6933 124.422 28.4133 124.288 29.08C124.168 29.7333 124.108 30.2867 124.108 30.74C124.108 31.4733 124.308 31.84 124.708 31.84L124.748 31.88C124.748 32.32 124.635 32.7 124.408 33.02C124.195 33.3267 123.915 33.5667 123.568 33.74C123.235 33.9 122.882 33.98 122.508 33.98C122.148 33.98 121.795 33.8933 121.448 33.72C121.115 33.5467 120.842 33.28 120.628 32.92C120.415 32.5467 120.308 32.0733 120.308 31.5C120.308 30.9533 120.402 30.36 120.588 29.72C120.788 29.0667 121.035 28.4067 121.328 27.74C121.622 27.06 121.922 26.4 122.228 25.76C122.535 25.1067 122.808 24.5 123.048 23.94C123.302 23.3667 123.468 22.8667 123.548 22.44C123.282 22.2533 122.995 22.16 122.688 22.16C122.435 22.16 122.175 22.2467 121.908 22.42C121.655 22.58 121.415 22.8533 121.188 23.24L121.048 23.18C121.062 22.5 121.208 21.88 121.488 21.32C121.768 20.7467 122.135 20.2933 122.588 19.96C123.055 19.6133 123.562 19.44 124.108 19.44C124.735 19.44 125.382 19.7133 126.048 20.26C126.715 20.8067 127.328 21.7067 127.888 22.96C128.462 24.2133 128.922 25.9067 129.268 28.04C129.775 26.4 130.322 25.0267 130.908 23.92C131.495 22.8133 132.095 21.9333 132.708 21.28C133.335 20.6267 133.948 20.16 134.548 19.88C135.162 19.5867 135.742 19.44 136.288 19.44C136.968 19.44 137.575 19.6067 138.108 19.94C138.655 20.2733 139.082 20.6933 139.388 21.2C139.708 21.7067 139.868 22.2133 139.868 22.72C139.535 22.6267 139.202 22.56 138.868 22.52C138.548 22.48 138.235 22.46 137.928 22.46C137.622 22.46 137.328 22.48 137.048 22.52C136.928 23.1333 136.802 23.82 136.668 24.58C136.535 25.3267 136.415 26.08 136.308 26.84C136.215 27.6 136.168 28.3 136.168 28.94C136.168 29.5933 136.235 30.1267 136.368 30.54C136.502 30.9533 136.735 31.16 137.068 31.16C137.282 31.16 137.495 31.0667 137.708 30.88C137.935 30.6933 138.102 30.4067 138.208 30.02L138.348 30.08C138.348 30.96 138.202 31.6933 137.908 32.28C137.615 32.8533 137.235 33.2867 136.768 33.58C136.315 33.86 135.848 34 135.368 34ZM141.019 34.08C140.606 34.08 140.239 33.98 139.919 33.78C139.599 33.58 139.439 33.2467 139.439 32.78C139.439 32.0467 139.592 31.3 139.899 30.54C140.219 29.78 140.606 29.0333 141.059 28.3C141.526 27.5533 141.986 26.8267 142.439 26.12C142.906 25.4133 143.292 24.74 143.599 24.1C143.919 23.46 144.079 22.8667 144.079 22.32C144.079 21.88 143.972 21.66 143.759 21.66C143.612 21.66 143.446 21.78 143.259 22.02C143.072 22.2467 142.939 22.5867 142.859 23.04L142.639 23C142.639 22.24 142.819 21.6 143.179 21.08C143.539 20.5467 143.999 20.1467 144.559 19.88C145.119 19.6133 145.692 19.48 146.279 19.48C146.959 19.48 147.592 19.6733 148.179 20.06C148.779 20.4467 149.192 21.06 149.419 21.9C149.512 22.2333 149.579 22.6067 149.619 23.02C149.672 23.4333 149.706 23.7933 149.719 24.1C149.732 24.3933 149.739 24.54 149.739 24.54C149.766 25.62 149.786 26.5333 149.799 27.28C149.826 28.0267 149.866 28.6533 149.919 29.16C149.972 29.6667 150.046 30.0933 150.139 30.44C150.232 30.7733 150.352 31.0467 150.499 31.26C150.659 31.46 150.859 31.56 151.099 31.56C151.326 31.56 151.519 31.4933 151.679 31.36C151.852 31.2267 151.966 31.1 152.019 30.98L152.159 31.08C152.159 31.6933 152.039 32.2267 151.799 32.68C151.559 33.1333 151.246 33.48 150.859 33.72C150.472 33.96 150.066 34.08 149.639 34.08C149.226 34.08 148.819 33.96 148.419 33.72C148.032 33.4667 147.692 33.08 147.399 32.56C147.106 32.04 146.912 31.3667 146.819 30.54C146.406 30.5133 145.999 30.4933 145.599 30.48C145.212 30.4533 144.859 30.44 144.539 30.44C144.326 30.44 144.119 30.4467 143.919 30.46C143.732 30.46 143.546 30.4667 143.359 30.48C143.239 30.8933 143.139 31.3133 143.059 31.74C142.992 32.1533 142.959 32.56 142.959 32.96C142.959 33.2667 142.759 33.5333 142.359 33.76C141.959 33.9733 141.512 34.08 141.019 34.08ZM144.019 28.62C144.352 28.5267 144.706 28.4667 145.079 28.44C145.452 28.4 145.852 28.38 146.279 28.38H146.719C146.692 27.3933 146.652 26.38 146.599 25.34C146.559 24.3 146.392 23.3333 146.099 22.44C145.992 23.4 145.726 24.4067 145.299 25.46C144.872 26.5133 144.446 27.5667 144.019 28.62ZM162.176 34.14C161.696 34.14 161.149 34.0533 160.536 33.88C159.936 33.7067 159.303 33.52 158.636 33.32C157.983 33.1067 157.329 32.9533 156.676 32.86C156.223 33.2867 155.796 33.5933 155.396 33.78C155.009 33.9533 154.663 34.04 154.356 34.04C153.969 34.04 153.643 33.9267 153.376 33.7C153.109 33.4733 152.909 33.1867 152.776 32.84C152.643 32.48 152.576 32.1133 152.576 31.74C152.576 31.3533 152.643 30.9867 152.776 30.64C152.923 30.2933 153.143 30.0133 153.436 29.8C153.729 29.5733 154.103 29.46 154.556 29.46C154.649 29.46 154.749 29.4667 154.856 29.48C154.963 29.4933 155.076 29.5133 155.196 29.54C155.449 28.7667 155.669 27.9133 155.856 26.98C156.056 26.0333 156.209 25.1067 156.316 24.2C156.436 23.2933 156.496 22.5067 156.496 21.84C156.496 21.5733 156.483 21.3867 156.456 21.28C156.429 21.16 156.383 21.04 156.316 20.92L156.296 20.86C156.456 20.4333 156.723 20.1 157.096 19.86C157.469 19.62 157.863 19.5 158.276 19.5C158.729 19.5 159.103 19.6667 159.396 20C159.689 20.32 159.836 20.86 159.836 21.62C159.836 22.1 159.776 22.7 159.656 23.42C159.549 24.1267 159.396 24.8933 159.196 25.72C158.996 26.5333 158.776 27.34 158.536 28.14C158.296 28.94 158.056 29.6533 157.816 30.28C158.403 30.4133 158.989 30.5667 159.576 30.74C160.176 30.9133 160.763 31 161.336 31C161.776 31 162.196 30.92 162.596 30.76C163.009 30.6 163.396 30.3067 163.756 29.88C164.023 30.0533 164.216 30.3 164.336 30.62C164.469 30.94 164.536 31.28 164.536 31.64C164.536 32.04 164.449 32.4333 164.276 32.82C164.116 33.1933 163.863 33.5067 163.516 33.76C163.169 34.0133 162.723 34.14 162.176 34.14Z"/></clipPath><linearGradient id="paint0_diamond_318_4980" x1="0" y1="0" x2="500" y2="500" gradientUnits="userSpaceOnUse">
<stop offset="0.170734" stop-color="#FF6392"/>
<stop offset="1" stop-color="#FFE00F"/>
</linearGradient>
<linearGradient id="paint1_linear_318_4980" x1="129.952" y1="34" x2="129.952" y2="70" gradientUnits="userSpaceOnUse">
<stop stop-color="#FFE00F"/>
<stop offset="1" stop-color="#FF6392"/>
</linearGradient>
</defs>
</svg>
